<mxfile host="Electron" modified="2024-05-22T20:10:54.845Z" agent="Mozilla/5.0 (Windows NT 10.0; Win64; x64) AppleWebKit/537.36 (KHTML, like Gecko) draw.io/22.0.2 Chrome/114.0.5735.289 Electron/25.8.4 Safari/537.36" etag="FgvwN8NjcTYw4_mMNJmO" version="22.0.2" type="device" pages="2">
  <diagram name="Flowchart" id="k2MDZINQVUUaZH4mTA_E">
    <mxGraphModel dx="3765" dy="1180" grid="1" gridSize="10" guides="1" tooltips="1" connect="1" arrows="1" fold="1" page="1" pageScale="1" pageWidth="827" pageHeight="1169" math="0" shadow="0">
      <root>
        <mxCell id="0" />
        <mxCell id="1" parent="0" />
        <mxCell id="qGw09s9Mnq_4pPBjvhij-18" style="edgeStyle=orthogonalEdgeStyle;rounded=0;orthogonalLoop=1;jettySize=auto;html=1;exitX=0;exitY=0.5;exitDx=0;exitDy=0;exitPerimeter=0;entryX=1;entryY=0.5;entryDx=0;entryDy=0;" parent="1" source="qGw09s9Mnq_4pPBjvhij-1" target="qGw09s9Mnq_4pPBjvhij-17" edge="1">
          <mxGeometry relative="1" as="geometry" />
        </mxCell>
        <mxCell id="qGw09s9Mnq_4pPBjvhij-19" value="Returns Int" style="edgeLabel;html=1;align=center;verticalAlign=middle;resizable=0;points=[];" parent="qGw09s9Mnq_4pPBjvhij-18" vertex="1" connectable="0">
          <mxGeometry x="0.1238" y="-2" relative="1" as="geometry">
            <mxPoint x="-13" y="2" as="offset" />
          </mxGeometry>
        </mxCell>
        <mxCell id="qGw09s9Mnq_4pPBjvhij-1" value="Check capacity" style="verticalLabelPosition=bottom;verticalAlign=top;html=1;shape=mxgraph.flowchart.on-page_reference;fillColor=#60a917;fontColor=#ffffff;strokeColor=#2D7600;" parent="1" vertex="1">
          <mxGeometry x="930" y="410" width="60" height="60" as="geometry" />
        </mxCell>
        <mxCell id="qGw09s9Mnq_4pPBjvhij-2" value="Start" style="strokeWidth=2;html=1;shape=mxgraph.flowchart.start_2;whiteSpace=wrap;" parent="1" vertex="1">
          <mxGeometry x="777" y="30" width="100" height="100" as="geometry" />
        </mxCell>
        <mxCell id="qGw09s9Mnq_4pPBjvhij-5" style="edgeStyle=orthogonalEdgeStyle;rounded=0;orthogonalLoop=1;jettySize=auto;html=1;exitX=1;exitY=0.5;exitDx=0;exitDy=0;exitPerimeter=0;" parent="1" source="qGw09s9Mnq_4pPBjvhij-3" target="qGw09s9Mnq_4pPBjvhij-4" edge="1">
          <mxGeometry relative="1" as="geometry" />
        </mxCell>
        <mxCell id="qGw09s9Mnq_4pPBjvhij-3" value="Check Capacity" style="verticalLabelPosition=bottom;verticalAlign=top;html=1;shape=mxgraph.flowchart.on-page_reference;fillColor=#60a917;fontColor=#ffffff;strokeColor=#2D7600;" parent="1" vertex="1">
          <mxGeometry x="1692" y="50" width="60" height="60" as="geometry" />
        </mxCell>
        <mxCell id="qGw09s9Mnq_4pPBjvhij-7" value="No" style="edgeStyle=orthogonalEdgeStyle;rounded=0;orthogonalLoop=1;jettySize=auto;html=1;exitX=0.5;exitY=1;exitDx=0;exitDy=0;exitPerimeter=0;entryX=0.5;entryY=0;entryDx=0;entryDy=0;entryPerimeter=0;" parent="1" source="qGw09s9Mnq_4pPBjvhij-4" target="1d8WR8wzsqjOdhYR17wt-116" edge="1">
          <mxGeometry relative="1" as="geometry">
            <mxPoint x="1817" y="400" as="targetPoint" />
          </mxGeometry>
        </mxCell>
        <mxCell id="qGw09s9Mnq_4pPBjvhij-4" value="&amp;nbsp; is num of cores&amp;nbsp; more than 4" style="strokeWidth=2;html=1;shape=mxgraph.flowchart.decision;whiteSpace=wrap;" parent="1" vertex="1">
          <mxGeometry x="1762" y="185" width="110" height="110" as="geometry" />
        </mxCell>
        <mxCell id="qGw09s9Mnq_4pPBjvhij-12" value="No" style="edgeStyle=orthogonalEdgeStyle;rounded=0;orthogonalLoop=1;jettySize=auto;html=1;exitX=0.5;exitY=1;exitDx=0;exitDy=0;exitPerimeter=0;entryX=0.5;entryY=0;entryDx=0;entryDy=0;entryPerimeter=0;" parent="1" source="qGw09s9Mnq_4pPBjvhij-8" target="1d8WR8wzsqjOdhYR17wt-117" edge="1">
          <mxGeometry relative="1" as="geometry">
            <mxPoint x="2017" y="501" as="targetPoint" />
          </mxGeometry>
        </mxCell>
        <mxCell id="qGw09s9Mnq_4pPBjvhij-14" value="Yes" style="edgeStyle=orthogonalEdgeStyle;rounded=0;orthogonalLoop=1;jettySize=auto;html=1;exitX=1;exitY=0.5;exitDx=0;exitDy=0;exitPerimeter=0;entryX=0.5;entryY=0;entryDx=0;entryDy=0;entryPerimeter=0;" parent="1" source="qGw09s9Mnq_4pPBjvhij-8" target="1d8WR8wzsqjOdhYR17wt-114" edge="1">
          <mxGeometry relative="1" as="geometry">
            <mxPoint x="2222" y="380" as="targetPoint" />
          </mxGeometry>
        </mxCell>
        <mxCell id="qGw09s9Mnq_4pPBjvhij-8" value="&amp;nbsp; is num of cores&amp;nbsp; more than 8" style="strokeWidth=2;html=1;shape=mxgraph.flowchart.decision;whiteSpace=wrap;" parent="1" vertex="1">
          <mxGeometry x="1962" y="281" width="110" height="110" as="geometry" />
        </mxCell>
        <mxCell id="qGw09s9Mnq_4pPBjvhij-9" style="edgeStyle=orthogonalEdgeStyle;rounded=0;orthogonalLoop=1;jettySize=auto;html=1;exitX=1;exitY=0.5;exitDx=0;exitDy=0;exitPerimeter=0;entryX=0.5;entryY=0;entryDx=0;entryDy=0;entryPerimeter=0;" parent="1" source="qGw09s9Mnq_4pPBjvhij-4" target="qGw09s9Mnq_4pPBjvhij-8" edge="1">
          <mxGeometry relative="1" as="geometry" />
        </mxCell>
        <mxCell id="qGw09s9Mnq_4pPBjvhij-16" style="edgeStyle=orthogonalEdgeStyle;rounded=0;orthogonalLoop=1;jettySize=auto;html=1;exitX=0.5;exitY=1;exitDx=0;exitDy=0;exitPerimeter=0;entryX=0.5;entryY=0;entryDx=0;entryDy=0;entryPerimeter=0;" parent="1" source="qGw09s9Mnq_4pPBjvhij-2" target="qGw09s9Mnq_4pPBjvhij-1" edge="1">
          <mxGeometry relative="1" as="geometry" />
        </mxCell>
        <mxCell id="qGw09s9Mnq_4pPBjvhij-17" value="save returned value as n" style="rounded=1;whiteSpace=wrap;html=1;absoluteArcSize=1;arcSize=14;strokeWidth=2;" parent="1" vertex="1">
          <mxGeometry x="640" y="410" width="100" height="60" as="geometry" />
        </mxCell>
        <mxCell id="qGw09s9Mnq_4pPBjvhij-22" style="edgeStyle=orthogonalEdgeStyle;rounded=0;orthogonalLoop=1;jettySize=auto;html=1;exitX=1;exitY=0.5;exitDx=0;exitDy=0;exitPerimeter=0;entryX=0.5;entryY=0;entryDx=0;entryDy=0;" parent="1" source="qGw09s9Mnq_4pPBjvhij-20" target="qGw09s9Mnq_4pPBjvhij-23" edge="1">
          <mxGeometry relative="1" as="geometry">
            <mxPoint x="1817" y="721" as="targetPoint" />
          </mxGeometry>
        </mxCell>
        <mxCell id="qGw09s9Mnq_4pPBjvhij-20" value="Check Ram" style="verticalLabelPosition=bottom;verticalAlign=top;html=1;shape=mxgraph.flowchart.on-page_reference;fillColor=#008a00;fontColor=#ffffff;strokeColor=#005700;" parent="1" vertex="1">
          <mxGeometry x="1692" y="591" width="60" height="60" as="geometry" />
        </mxCell>
        <mxCell id="qGw09s9Mnq_4pPBjvhij-26" style="edgeStyle=orthogonalEdgeStyle;rounded=0;orthogonalLoop=1;jettySize=auto;html=1;exitX=1;exitY=0.5;exitDx=0;exitDy=0;entryX=0;entryY=0.5;entryDx=0;entryDy=0;" parent="1" source="qGw09s9Mnq_4pPBjvhij-23" target="qGw09s9Mnq_4pPBjvhij-25" edge="1">
          <mxGeometry relative="1" as="geometry" />
        </mxCell>
        <mxCell id="qGw09s9Mnq_4pPBjvhij-23" value="Execute Windows function to return total RAM" style="verticalLabelPosition=bottom;verticalAlign=top;html=1;shape=process;whiteSpace=wrap;rounded=1;size=0.14;arcSize=6;" parent="1" vertex="1">
          <mxGeometry x="1752" y="721" width="130" height="100" as="geometry" />
        </mxCell>
        <mxCell id="qGw09s9Mnq_4pPBjvhij-25" value="Sum all digits and convert to GB" style="rounded=1;whiteSpace=wrap;html=1;absoluteArcSize=1;arcSize=14;strokeWidth=2;" parent="1" vertex="1">
          <mxGeometry x="1962" y="731" width="160" height="80" as="geometry" />
        </mxCell>
        <mxCell id="BwnlRlvF5BQH71ACZmq_-1" style="edgeStyle=orthogonalEdgeStyle;rounded=0;orthogonalLoop=1;jettySize=auto;html=1;exitX=1;exitY=0.5;exitDx=0;exitDy=0;exitPerimeter=0;entryX=0.5;entryY=0;entryDx=0;entryDy=0;entryPerimeter=0;" parent="1" source="qGw09s9Mnq_4pPBjvhij-27" target="BwnlRlvF5BQH71ACZmq_-2" edge="1">
          <mxGeometry relative="1" as="geometry">
            <mxPoint x="1812" y="969" as="targetPoint" />
          </mxGeometry>
        </mxCell>
        <mxCell id="qGw09s9Mnq_4pPBjvhij-27" value="Get Params" style="verticalLabelPosition=bottom;verticalAlign=top;html=1;shape=mxgraph.flowchart.on-page_reference;fillColor=#0050ef;fontColor=#ffffff;strokeColor=#001DBC;" parent="1" vertex="1">
          <mxGeometry x="1692" y="939" width="60" height="60" as="geometry" />
        </mxCell>
        <mxCell id="BwnlRlvF5BQH71ACZmq_-4" value="Return Int" style="edgeStyle=orthogonalEdgeStyle;rounded=0;orthogonalLoop=1;jettySize=auto;html=1;exitX=1;exitY=0.5;exitDx=0;exitDy=0;exitPerimeter=0;entryX=0.5;entryY=0;entryDx=0;entryDy=0;" parent="1" source="BwnlRlvF5BQH71ACZmq_-2" target="BwnlRlvF5BQH71ACZmq_-3" edge="1">
          <mxGeometry relative="1" as="geometry" />
        </mxCell>
        <mxCell id="BwnlRlvF5BQH71ACZmq_-2" value="Check Capacity" style="verticalLabelPosition=bottom;verticalAlign=top;html=1;shape=mxgraph.flowchart.on-page_reference;fillColor=#60a917;fontColor=#ffffff;strokeColor=#2D7600;" parent="1" vertex="1">
          <mxGeometry x="1812" y="1059" width="60" height="60" as="geometry" />
        </mxCell>
        <mxCell id="BwnlRlvF5BQH71ACZmq_-3" value="save returned value as n" style="rounded=1;whiteSpace=wrap;html=1;absoluteArcSize=1;arcSize=14;strokeWidth=2;" parent="1" vertex="1">
          <mxGeometry x="1912" y="1169" width="100" height="60" as="geometry" />
        </mxCell>
        <mxCell id="BwnlRlvF5BQH71ACZmq_-8" value="Return Float" style="edgeStyle=orthogonalEdgeStyle;rounded=0;orthogonalLoop=1;jettySize=auto;html=1;exitX=1;exitY=0.5;exitDx=0;exitDy=0;exitPerimeter=0;entryX=0.5;entryY=0;entryDx=0;entryDy=0;" parent="1" source="BwnlRlvF5BQH71ACZmq_-5" target="BwnlRlvF5BQH71ACZmq_-7" edge="1">
          <mxGeometry relative="1" as="geometry" />
        </mxCell>
        <mxCell id="BwnlRlvF5BQH71ACZmq_-5" value="Check Ram" style="verticalLabelPosition=bottom;verticalAlign=top;html=1;shape=mxgraph.flowchart.on-page_reference;fillColor=#008a00;fontColor=#ffffff;strokeColor=#005700;" parent="1" vertex="1">
          <mxGeometry x="2053" y="1289" width="60" height="60" as="geometry" />
        </mxCell>
        <mxCell id="BwnlRlvF5BQH71ACZmq_-6" style="edgeStyle=orthogonalEdgeStyle;rounded=0;orthogonalLoop=1;jettySize=auto;html=1;exitX=1;exitY=0.5;exitDx=0;exitDy=0;entryX=0.5;entryY=0;entryDx=0;entryDy=0;entryPerimeter=0;" parent="1" source="BwnlRlvF5BQH71ACZmq_-3" target="BwnlRlvF5BQH71ACZmq_-5" edge="1">
          <mxGeometry relative="1" as="geometry" />
        </mxCell>
        <mxCell id="1d8WR8wzsqjOdhYR17wt-45" style="edgeStyle=orthogonalEdgeStyle;rounded=0;orthogonalLoop=1;jettySize=auto;html=1;exitX=1;exitY=0.5;exitDx=0;exitDy=0;entryX=0.5;entryY=0;entryDx=0;entryDy=0;" parent="1" source="BwnlRlvF5BQH71ACZmq_-7" target="BwnlRlvF5BQH71ACZmq_-9" edge="1">
          <mxGeometry relative="1" as="geometry" />
        </mxCell>
        <mxCell id="BwnlRlvF5BQH71ACZmq_-7" value="save returned value as RAM" style="rounded=1;whiteSpace=wrap;html=1;absoluteArcSize=1;arcSize=14;strokeWidth=2;" parent="1" vertex="1">
          <mxGeometry x="2152" y="1409" width="100" height="60" as="geometry" />
        </mxCell>
        <mxCell id="1d8WR8wzsqjOdhYR17wt-46" style="edgeStyle=orthogonalEdgeStyle;rounded=0;orthogonalLoop=1;jettySize=auto;html=1;exitX=0;exitY=0.5;exitDx=0;exitDy=0;entryX=0.5;entryY=0;entryDx=0;entryDy=0;" parent="1" source="BwnlRlvF5BQH71ACZmq_-9" target="BwnlRlvF5BQH71ACZmq_-19" edge="1">
          <mxGeometry relative="1" as="geometry" />
        </mxCell>
        <mxCell id="BwnlRlvF5BQH71ACZmq_-9" value="Read text file and save as variable TEXT" style="rounded=1;whiteSpace=wrap;html=1;absoluteArcSize=1;arcSize=14;strokeWidth=2;" parent="1" vertex="1">
          <mxGeometry x="2252" y="1500" width="100" height="60" as="geometry" />
        </mxCell>
        <mxCell id="BwnlRlvF5BQH71ACZmq_-14" value="No" style="edgeStyle=orthogonalEdgeStyle;rounded=0;orthogonalLoop=1;jettySize=auto;html=1;exitX=0;exitY=0.5;exitDx=0;exitDy=0;exitPerimeter=0;entryX=0.5;entryY=0;entryDx=0;entryDy=0;entryPerimeter=0;" parent="1" source="BwnlRlvF5BQH71ACZmq_-11" target="1d8WR8wzsqjOdhYR17wt-111" edge="1">
          <mxGeometry relative="1" as="geometry">
            <mxPoint x="1797" y="1879" as="targetPoint" />
          </mxGeometry>
        </mxCell>
        <mxCell id="BwnlRlvF5BQH71ACZmq_-11" value="is size&amp;nbsp;* n &lt;br&gt;bigger than half the avaible ram" style="strokeWidth=2;html=1;shape=mxgraph.flowchart.decision;whiteSpace=wrap;" parent="1" vertex="1">
          <mxGeometry x="1902" y="1669" width="220" height="220" as="geometry" />
        </mxCell>
        <mxCell id="BwnlRlvF5BQH71ACZmq_-16" value="Yes" style="edgeStyle=orthogonalEdgeStyle;rounded=0;orthogonalLoop=1;jettySize=auto;html=1;exitX=0.5;exitY=1;exitDx=0;exitDy=0;exitPerimeter=0;entryX=0.5;entryY=0;entryDx=0;entryDy=0;" parent="1" source="BwnlRlvF5BQH71ACZmq_-11" target="BwnlRlvF5BQH71ACZmq_-17" edge="1">
          <mxGeometry relative="1" as="geometry">
            <mxPoint x="1170" y="1910" as="targetPoint" />
          </mxGeometry>
        </mxCell>
        <mxCell id="BwnlRlvF5BQH71ACZmq_-17" value="size is size / n&lt;br&gt;length is length / n" style="rounded=1;whiteSpace=wrap;html=1;absoluteArcSize=1;arcSize=14;strokeWidth=2;" parent="1" vertex="1">
          <mxGeometry x="1902" y="1929" width="220" height="60" as="geometry" />
        </mxCell>
        <mxCell id="BwnlRlvF5BQH71ACZmq_-23" value="No" style="edgeStyle=orthogonalEdgeStyle;rounded=0;orthogonalLoop=1;jettySize=auto;html=1;exitX=0;exitY=0.5;exitDx=0;exitDy=0;exitPerimeter=0;entryX=1;entryY=0.5;entryDx=0;entryDy=0;entryPerimeter=0;" parent="1" source="BwnlRlvF5BQH71ACZmq_-18" target="1d8WR8wzsqjOdhYR17wt-110" edge="1">
          <mxGeometry relative="1" as="geometry">
            <mxPoint x="1942" y="2139" as="targetPoint" />
          </mxGeometry>
        </mxCell>
        <mxCell id="BwnlRlvF5BQH71ACZmq_-25" value="Yes" style="edgeStyle=orthogonalEdgeStyle;rounded=0;orthogonalLoop=1;jettySize=auto;html=1;exitX=1;exitY=0.5;exitDx=0;exitDy=0;exitPerimeter=0;entryX=0.538;entryY=0.017;entryDx=0;entryDy=0;entryPerimeter=0;" parent="1" source="BwnlRlvF5BQH71ACZmq_-18" target="BwnlRlvF5BQH71ACZmq_-24" edge="1">
          <mxGeometry relative="1" as="geometry" />
        </mxCell>
        <mxCell id="BwnlRlvF5BQH71ACZmq_-18" value="is size&amp;nbsp;* n &lt;br&gt;bigger than half the avaible ram" style="strokeWidth=2;html=1;shape=mxgraph.flowchart.decision;whiteSpace=wrap;" parent="1" vertex="1">
          <mxGeometry x="2053" y="2029" width="220" height="220" as="geometry" />
        </mxCell>
        <mxCell id="BwnlRlvF5BQH71ACZmq_-19" value="size is the memory size of TEXT&lt;br&gt;length is the number of chars in TEXT" style="rounded=1;whiteSpace=wrap;html=1;absoluteArcSize=1;arcSize=14;strokeWidth=2;" parent="1" vertex="1">
          <mxGeometry x="2082" y="1599" width="220" height="60" as="geometry" />
        </mxCell>
        <mxCell id="BwnlRlvF5BQH71ACZmq_-20" style="edgeStyle=orthogonalEdgeStyle;rounded=0;orthogonalLoop=1;jettySize=auto;html=1;exitX=0;exitY=0.5;exitDx=0;exitDy=0;entryX=0.5;entryY=0;entryDx=0;entryDy=0;entryPerimeter=0;" parent="1" source="BwnlRlvF5BQH71ACZmq_-19" target="BwnlRlvF5BQH71ACZmq_-11" edge="1">
          <mxGeometry relative="1" as="geometry" />
        </mxCell>
        <mxCell id="BwnlRlvF5BQH71ACZmq_-21" style="edgeStyle=orthogonalEdgeStyle;rounded=0;orthogonalLoop=1;jettySize=auto;html=1;exitX=1;exitY=0.5;exitDx=0;exitDy=0;entryX=0.5;entryY=0;entryDx=0;entryDy=0;entryPerimeter=0;" parent="1" source="BwnlRlvF5BQH71ACZmq_-17" target="BwnlRlvF5BQH71ACZmq_-18" edge="1">
          <mxGeometry relative="1" as="geometry" />
        </mxCell>
        <mxCell id="BwnlRlvF5BQH71ACZmq_-27" style="edgeStyle=orthogonalEdgeStyle;rounded=0;orthogonalLoop=1;jettySize=auto;html=1;exitX=0;exitY=0.5;exitDx=0;exitDy=0;entryX=1;entryY=0.5;entryDx=0;entryDy=0;entryPerimeter=0;" parent="1" source="BwnlRlvF5BQH71ACZmq_-24" target="1d8WR8wzsqjOdhYR17wt-109" edge="1">
          <mxGeometry relative="1" as="geometry">
            <mxPoint x="2047" y="2289" as="targetPoint" />
          </mxGeometry>
        </mxCell>
        <mxCell id="BwnlRlvF5BQH71ACZmq_-24" value="size is size / n&lt;br&gt;length is length / n" style="rounded=1;whiteSpace=wrap;html=1;absoluteArcSize=1;arcSize=14;strokeWidth=2;" parent="1" vertex="1">
          <mxGeometry x="2262" y="2259" width="182" height="60" as="geometry" />
        </mxCell>
        <mxCell id="BwnlRlvF5BQH71ACZmq_-31" value="Returns Int, Int, Int" style="edgeStyle=orthogonalEdgeStyle;rounded=0;orthogonalLoop=1;jettySize=auto;html=1;exitX=1;exitY=0.5;exitDx=0;exitDy=0;exitPerimeter=0;entryX=0;entryY=0.5;entryDx=0;entryDy=0;" parent="1" source="BwnlRlvF5BQH71ACZmq_-28" target="BwnlRlvF5BQH71ACZmq_-30" edge="1">
          <mxGeometry relative="1" as="geometry" />
        </mxCell>
        <mxCell id="BwnlRlvF5BQH71ACZmq_-28" value="Get Params" style="verticalLabelPosition=bottom;verticalAlign=top;html=1;shape=mxgraph.flowchart.on-page_reference;fillColor=#0050ef;fontColor=#ffffff;strokeColor=#001DBC;" parent="1" vertex="1">
          <mxGeometry x="660" y="630" width="60" height="60" as="geometry" />
        </mxCell>
        <mxCell id="BwnlRlvF5BQH71ACZmq_-29" style="edgeStyle=orthogonalEdgeStyle;rounded=0;orthogonalLoop=1;jettySize=auto;html=1;exitX=0.5;exitY=1;exitDx=0;exitDy=0;entryX=0.5;entryY=0;entryDx=0;entryDy=0;entryPerimeter=0;" parent="1" source="qGw09s9Mnq_4pPBjvhij-17" target="BwnlRlvF5BQH71ACZmq_-28" edge="1">
          <mxGeometry relative="1" as="geometry" />
        </mxCell>
        <mxCell id="1d8WR8wzsqjOdhYR17wt-105" style="edgeStyle=orthogonalEdgeStyle;rounded=0;orthogonalLoop=1;jettySize=auto;html=1;exitX=0.5;exitY=1;exitDx=0;exitDy=0;entryX=0.5;entryY=0;entryDx=0;entryDy=0;" parent="1" source="BwnlRlvF5BQH71ACZmq_-30" target="1d8WR8wzsqjOdhYR17wt-104" edge="1">
          <mxGeometry relative="1" as="geometry" />
        </mxCell>
        <mxCell id="BwnlRlvF5BQH71ACZmq_-30" value="save returned values as LENGTH, DIV and TEXT" style="rounded=1;whiteSpace=wrap;html=1;absoluteArcSize=1;arcSize=14;strokeWidth=2;" parent="1" vertex="1">
          <mxGeometry x="910" y="629.9999999999999" width="100" height="60" as="geometry" />
        </mxCell>
        <mxCell id="QFJ6Mpv5sqVxcN6rN_mF-5" value="No" style="edgeStyle=orthogonalEdgeStyle;rounded=0;orthogonalLoop=1;jettySize=auto;html=1;exitX=0;exitY=0.5;exitDx=0;exitDy=0;exitPerimeter=0;entryX=0.5;entryY=0;entryDx=0;entryDy=0;entryPerimeter=0;" parent="1" source="QFJ6Mpv5sqVxcN6rN_mF-1" target="QFJ6Mpv5sqVxcN6rN_mF-7" edge="1">
          <mxGeometry relative="1" as="geometry">
            <mxPoint x="683" y="1097" as="targetPoint" />
          </mxGeometry>
        </mxCell>
        <mxCell id="QFJ6Mpv5sqVxcN6rN_mF-6" value="Yes" style="edgeStyle=orthogonalEdgeStyle;rounded=0;orthogonalLoop=1;jettySize=auto;html=1;exitX=1;exitY=0.5;exitDx=0;exitDy=0;exitPerimeter=0;entryX=0.5;entryY=0;entryDx=0;entryDy=0;entryPerimeter=0;" parent="1" source="QFJ6Mpv5sqVxcN6rN_mF-1" target="QFJ6Mpv5sqVxcN6rN_mF-11" edge="1">
          <mxGeometry relative="1" as="geometry">
            <mxPoint x="973" y="1117" as="targetPoint" />
          </mxGeometry>
        </mxCell>
        <mxCell id="QFJ6Mpv5sqVxcN6rN_mF-1" value="is DIV 1?" style="strokeWidth=2;html=1;shape=mxgraph.flowchart.decision;whiteSpace=wrap;" parent="1" vertex="1">
          <mxGeometry x="777" y="978.9999999999999" width="100" height="100" as="geometry" />
        </mxCell>
        <mxCell id="1d8WR8wzsqjOdhYR17wt-51" value="Yes" style="edgeStyle=orthogonalEdgeStyle;rounded=0;orthogonalLoop=1;jettySize=auto;html=1;exitX=1;exitY=0.5;exitDx=0;exitDy=0;exitPerimeter=0;entryX=0.5;entryY=0;entryDx=0;entryDy=0;entryPerimeter=0;" parent="1" source="QFJ6Mpv5sqVxcN6rN_mF-7" target="1d8WR8wzsqjOdhYR17wt-107" edge="1">
          <mxGeometry x="-0.4173" relative="1" as="geometry">
            <mxPoint x="827" y="1220" as="targetPoint" />
            <mxPoint as="offset" />
          </mxGeometry>
        </mxCell>
        <mxCell id="nNyaXuhyY7WsVw48KWjg-2" value="No" style="edgeStyle=orthogonalEdgeStyle;rounded=0;orthogonalLoop=1;jettySize=auto;html=1;exitX=0.5;exitY=1;exitDx=0;exitDy=0;exitPerimeter=0;entryX=0.5;entryY=0;entryDx=0;entryDy=0;" parent="1" source="QFJ6Mpv5sqVxcN6rN_mF-7" target="nNyaXuhyY7WsVw48KWjg-1" edge="1">
          <mxGeometry relative="1" as="geometry" />
        </mxCell>
        <mxCell id="QFJ6Mpv5sqVxcN6rN_mF-7" value="Have all patterns been searched" style="strokeWidth=2;html=1;shape=mxgraph.flowchart.loop_limit;whiteSpace=wrap;" parent="1" vertex="1">
          <mxGeometry x="530" y="1117" width="140" height="80" as="geometry" />
        </mxCell>
        <mxCell id="QFJ6Mpv5sqVxcN6rN_mF-13" value="No" style="edgeStyle=orthogonalEdgeStyle;rounded=0;orthogonalLoop=1;jettySize=auto;html=1;exitX=1;exitY=0.5;exitDx=0;exitDy=0;exitPerimeter=0;entryX=0.5;entryY=0;entryDx=0;entryDy=0;" parent="1" source="QFJ6Mpv5sqVxcN6rN_mF-11" target="QFJ6Mpv5sqVxcN6rN_mF-12" edge="1">
          <mxGeometry relative="1" as="geometry" />
        </mxCell>
        <mxCell id="1d8WR8wzsqjOdhYR17wt-50" value="Yes" style="edgeStyle=orthogonalEdgeStyle;rounded=0;orthogonalLoop=1;jettySize=auto;html=1;exitX=0;exitY=0.5;exitDx=0;exitDy=0;exitPerimeter=0;entryX=0.5;entryY=0;entryDx=0;entryDy=0;entryPerimeter=0;" parent="1" source="QFJ6Mpv5sqVxcN6rN_mF-11" target="1d8WR8wzsqjOdhYR17wt-107" edge="1">
          <mxGeometry x="-0.3813" relative="1" as="geometry">
            <mxPoint x="827" y="1220" as="targetPoint" />
            <mxPoint as="offset" />
          </mxGeometry>
        </mxCell>
        <mxCell id="QFJ6Mpv5sqVxcN6rN_mF-11" value="Have all patterns been searched" style="strokeWidth=2;html=1;shape=mxgraph.flowchart.loop_limit;whiteSpace=wrap;" parent="1" vertex="1">
          <mxGeometry x="973" y="1117" width="140" height="80" as="geometry" />
        </mxCell>
        <mxCell id="QFJ6Mpv5sqVxcN6rN_mF-12" value="Define processes list" style="verticalLabelPosition=bottom;verticalAlign=top;html=1;shape=hexagon;perimeter=hexagonPerimeter2;arcSize=6;size=0.27;" parent="1" vertex="1">
          <mxGeometry x="1160" y="1187" width="100" height="60" as="geometry" />
        </mxCell>
        <mxCell id="QFJ6Mpv5sqVxcN6rN_mF-17" value="Yes" style="edgeStyle=orthogonalEdgeStyle;rounded=0;orthogonalLoop=1;jettySize=auto;html=1;exitX=0.141;exitY=0.649;exitDx=0;exitDy=0;exitPerimeter=0;entryX=0.5;entryY=0;entryDx=0;entryDy=0;" parent="1" source="QFJ6Mpv5sqVxcN6rN_mF-14" target="QFJ6Mpv5sqVxcN6rN_mF-16" edge="1">
          <mxGeometry x="0.2503" relative="1" as="geometry">
            <mxPoint x="1220" y="1390" as="sourcePoint" />
            <Array as="points">
              <mxPoint x="1190" y="1417" />
            </Array>
            <mxPoint as="offset" />
          </mxGeometry>
        </mxCell>
        <mxCell id="QFJ6Mpv5sqVxcN6rN_mF-19" value="No" style="edgeStyle=orthogonalEdgeStyle;rounded=0;orthogonalLoop=1;jettySize=auto;html=1;exitX=0.859;exitY=0.646;exitDx=0;exitDy=0;exitPerimeter=0;entryX=0.5;entryY=0;entryDx=0;entryDy=0;" parent="1" source="QFJ6Mpv5sqVxcN6rN_mF-14" target="QFJ6Mpv5sqVxcN6rN_mF-18" edge="1">
          <mxGeometry x="0.2396" relative="1" as="geometry">
            <mxPoint x="1430" y="1431" as="targetPoint" />
            <mxPoint x="1400" y="1390" as="sourcePoint" />
            <Array as="points">
              <mxPoint x="1420" y="1416" />
              <mxPoint x="1430" y="1416" />
            </Array>
            <mxPoint as="offset" />
          </mxGeometry>
        </mxCell>
        <mxCell id="QFJ6Mpv5sqVxcN6rN_mF-14" value="is n bigger than the number &lt;br&gt;of remaining patterns" style="strokeWidth=2;html=1;shape=mxgraph.flowchart.decision;whiteSpace=wrap;" parent="1" vertex="1">
          <mxGeometry x="1220" y="1300" width="180" height="180" as="geometry" />
        </mxCell>
        <mxCell id="QFJ6Mpv5sqVxcN6rN_mF-15" style="edgeStyle=orthogonalEdgeStyle;rounded=0;orthogonalLoop=1;jettySize=auto;html=1;exitX=1;exitY=0.5;exitDx=0;exitDy=0;entryX=0.5;entryY=0;entryDx=0;entryDy=0;entryPerimeter=0;" parent="1" source="QFJ6Mpv5sqVxcN6rN_mF-12" target="QFJ6Mpv5sqVxcN6rN_mF-14" edge="1">
          <mxGeometry relative="1" as="geometry" />
        </mxCell>
        <mxCell id="QFJ6Mpv5sqVxcN6rN_mF-23" style="edgeStyle=orthogonalEdgeStyle;rounded=0;orthogonalLoop=1;jettySize=auto;html=1;exitX=1;exitY=0.5;exitDx=0;exitDy=0;entryX=0.5;entryY=0;entryDx=0;entryDy=0;entryPerimeter=0;" parent="1" source="QFJ6Mpv5sqVxcN6rN_mF-16" target="QFJ6Mpv5sqVxcN6rN_mF-21" edge="1">
          <mxGeometry relative="1" as="geometry">
            <mxPoint x="1310" y="1640" as="targetPoint" />
            <Array as="points">
              <mxPoint x="1270" y="1480" />
              <mxPoint x="1270" y="1551" />
              <mxPoint x="1310" y="1551" />
            </Array>
          </mxGeometry>
        </mxCell>
        <mxCell id="QFJ6Mpv5sqVxcN6rN_mF-16" value="Stopping point should be &lt;br&gt;the last pattern" style="verticalLabelPosition=bottom;verticalAlign=top;html=1;shape=hexagon;perimeter=hexagonPerimeter2;arcSize=6;size=0.27;" parent="1" vertex="1">
          <mxGeometry x="1140" y="1450" width="100" height="60" as="geometry" />
        </mxCell>
        <mxCell id="QFJ6Mpv5sqVxcN6rN_mF-18" value="Stopping point should be &lt;br&gt;the last checked&lt;br&gt;pattern&amp;nbsp;+ n" style="verticalLabelPosition=bottom;verticalAlign=top;html=1;shape=hexagon;perimeter=hexagonPerimeter2;arcSize=6;size=0.27;" parent="1" vertex="1">
          <mxGeometry x="1380" y="1450" width="100" height="60" as="geometry" />
        </mxCell>
        <mxCell id="QFJ6Mpv5sqVxcN6rN_mF-64" value="No" style="edgeStyle=orthogonalEdgeStyle;rounded=0;orthogonalLoop=1;jettySize=auto;html=1;exitX=0.5;exitY=1;exitDx=0;exitDy=0;exitPerimeter=0;entryX=0.5;entryY=0;entryDx=0;entryDy=0;" parent="1" source="QFJ6Mpv5sqVxcN6rN_mF-21" target="1d8WR8wzsqjOdhYR17wt-1" edge="1">
          <mxGeometry x="-0.5713" relative="1" as="geometry">
            <mxPoint x="1167" y="1908" as="targetPoint" />
            <mxPoint as="offset" />
          </mxGeometry>
        </mxCell>
        <mxCell id="1d8WR8wzsqjOdhYR17wt-13" value="Yes" style="edgeStyle=orthogonalEdgeStyle;rounded=0;orthogonalLoop=1;jettySize=auto;html=1;exitX=0;exitY=0.5;exitDx=0;exitDy=0;exitPerimeter=0;entryX=0.5;entryY=0;entryDx=0;entryDy=0;" parent="1" source="QFJ6Mpv5sqVxcN6rN_mF-21" target="1d8WR8wzsqjOdhYR17wt-27" edge="1">
          <mxGeometry x="-0.5659" relative="1" as="geometry">
            <mxPoint x="1240" y="1978" as="targetPoint" />
            <mxPoint as="offset" />
          </mxGeometry>
        </mxCell>
        <mxCell id="QFJ6Mpv5sqVxcN6rN_mF-21" value="is the length &lt;br&gt;of process list &lt;br&gt;the same as n?" style="strokeWidth=2;html=1;shape=mxgraph.flowchart.loop_limit;whiteSpace=wrap;" parent="1" vertex="1">
          <mxGeometry x="1260" y="1729" width="100" height="60" as="geometry" />
        </mxCell>
        <mxCell id="QFJ6Mpv5sqVxcN6rN_mF-22" style="edgeStyle=orthogonalEdgeStyle;rounded=0;orthogonalLoop=1;jettySize=auto;html=1;exitX=0;exitY=0.5;exitDx=0;exitDy=0;entryX=0.5;entryY=0;entryDx=0;entryDy=0;entryPerimeter=0;" parent="1" source="QFJ6Mpv5sqVxcN6rN_mF-18" target="QFJ6Mpv5sqVxcN6rN_mF-21" edge="1">
          <mxGeometry relative="1" as="geometry">
            <mxPoint x="1380" y="1461" as="sourcePoint" />
            <Array as="points">
              <mxPoint x="1350" y="1480" />
              <mxPoint x="1350" y="1551" />
              <mxPoint x="1310" y="1551" />
            </Array>
          </mxGeometry>
        </mxCell>
        <mxCell id="QFJ6Mpv5sqVxcN6rN_mF-25" value="Search &lt;br&gt;(text-segment and pattern)" style="verticalLabelPosition=bottom;verticalAlign=top;html=1;shape=mxgraph.flowchart.on-page_reference;fillColor=#d80073;fontColor=#ffffff;strokeColor=#A50040;" parent="1" vertex="1">
          <mxGeometry x="1692" y="2379" width="60" height="60" as="geometry" />
        </mxCell>
        <mxCell id="QFJ6Mpv5sqVxcN6rN_mF-26" value="Count is 0" style="verticalLabelPosition=bottom;verticalAlign=top;html=1;shape=hexagon;perimeter=hexagonPerimeter2;arcSize=6;size=0.27;" parent="1" vertex="1">
          <mxGeometry x="1792" y="2529" width="100" height="60" as="geometry" />
        </mxCell>
        <mxCell id="QFJ6Mpv5sqVxcN6rN_mF-63" value="Yes" style="edgeStyle=orthogonalEdgeStyle;rounded=0;orthogonalLoop=1;jettySize=auto;html=1;exitX=1;exitY=0.5;exitDx=0;exitDy=0;exitPerimeter=0;entryX=0;entryY=0.5;entryDx=0;entryDy=0;entryPerimeter=0;" parent="1" source="QFJ6Mpv5sqVxcN6rN_mF-29" target="1d8WR8wzsqjOdhYR17wt-108" edge="1">
          <mxGeometry relative="1" as="geometry">
            <mxPoint x="2418" y="2660" as="targetPoint" />
          </mxGeometry>
        </mxCell>
        <mxCell id="QFJ6Mpv5sqVxcN6rN_mF-29" value="is start pos greater than (text end pos - pattern length)?" style="strokeWidth=2;html=1;shape=mxgraph.flowchart.loop_limit;whiteSpace=wrap;" parent="1" vertex="1">
          <mxGeometry x="1993" y="2610" width="160" height="100" as="geometry" />
        </mxCell>
        <mxCell id="QFJ6Mpv5sqVxcN6rN_mF-30" style="edgeStyle=orthogonalEdgeStyle;rounded=0;orthogonalLoop=1;jettySize=auto;html=1;exitX=1;exitY=0.5;exitDx=0;exitDy=0;entryX=0.5;entryY=0;entryDx=0;entryDy=0;entryPerimeter=0;" parent="1" source="QFJ6Mpv5sqVxcN6rN_mF-26" target="QFJ6Mpv5sqVxcN6rN_mF-29" edge="1">
          <mxGeometry relative="1" as="geometry" />
        </mxCell>
        <mxCell id="QFJ6Mpv5sqVxcN6rN_mF-38" value="Yes" style="edgeStyle=orthogonalEdgeStyle;rounded=0;orthogonalLoop=1;jettySize=auto;html=1;exitX=1;exitY=0.5;exitDx=0;exitDy=0;exitPerimeter=0;entryX=0.5;entryY=0;entryDx=0;entryDy=0;" parent="1" source="QFJ6Mpv5sqVxcN6rN_mF-31" target="QFJ6Mpv5sqVxcN6rN_mF-37" edge="1">
          <mxGeometry relative="1" as="geometry" />
        </mxCell>
        <mxCell id="1d8WR8wzsqjOdhYR17wt-123" value="No" style="edgeStyle=orthogonalEdgeStyle;rounded=0;orthogonalLoop=1;jettySize=auto;html=1;exitX=0;exitY=0.5;exitDx=0;exitDy=0;exitPerimeter=0;entryX=1;entryY=0.5;entryDx=0;entryDy=0;" parent="1" source="QFJ6Mpv5sqVxcN6rN_mF-31" target="QFJ6Mpv5sqVxcN6rN_mF-33" edge="1">
          <mxGeometry relative="1" as="geometry" />
        </mxCell>
        <mxCell id="QFJ6Mpv5sqVxcN6rN_mF-31" value="does the current pos&lt;br&gt;&amp;nbsp;match the first char&lt;br&gt;&amp;nbsp;of the pattern?" style="strokeWidth=2;html=1;shape=mxgraph.flowchart.decision;whiteSpace=wrap;" parent="1" vertex="1">
          <mxGeometry x="1993" y="2809" width="160" height="160" as="geometry" />
        </mxCell>
        <mxCell id="QFJ6Mpv5sqVxcN6rN_mF-32" value="No" style="edgeStyle=orthogonalEdgeStyle;rounded=0;orthogonalLoop=1;jettySize=auto;html=1;exitX=0.5;exitY=1;exitDx=0;exitDy=0;exitPerimeter=0;entryX=0.5;entryY=0;entryDx=0;entryDy=0;entryPerimeter=0;" parent="1" source="QFJ6Mpv5sqVxcN6rN_mF-29" target="QFJ6Mpv5sqVxcN6rN_mF-31" edge="1">
          <mxGeometry relative="1" as="geometry" />
        </mxCell>
        <mxCell id="QFJ6Mpv5sqVxcN6rN_mF-33" value="Increase the start pos by 1" style="rounded=1;whiteSpace=wrap;html=1;absoluteArcSize=1;arcSize=14;strokeWidth=2;" parent="1" vertex="1">
          <mxGeometry x="1757" y="2859" width="170" height="60" as="geometry" />
        </mxCell>
        <mxCell id="QFJ6Mpv5sqVxcN6rN_mF-37" value="Found is True" style="verticalLabelPosition=bottom;verticalAlign=top;html=1;shape=hexagon;perimeter=hexagonPerimeter2;arcSize=6;size=0.27;" parent="1" vertex="1">
          <mxGeometry x="2223" y="3010" width="100" height="60" as="geometry" />
        </mxCell>
        <mxCell id="QFJ6Mpv5sqVxcN6rN_mF-39" value="is i bigger than the length of the pattern?" style="strokeWidth=2;html=1;shape=mxgraph.flowchart.loop_limit;whiteSpace=wrap;" parent="1" vertex="1">
          <mxGeometry x="1992" y="3160" width="160" height="100" as="geometry" />
        </mxCell>
        <mxCell id="QFJ6Mpv5sqVxcN6rN_mF-49" value="Yes" style="edgeStyle=orthogonalEdgeStyle;rounded=0;orthogonalLoop=1;jettySize=auto;html=1;exitX=0;exitY=0.5;exitDx=0;exitDy=0;exitPerimeter=0;" parent="1" source="QFJ6Mpv5sqVxcN6rN_mF-41" target="QFJ6Mpv5sqVxcN6rN_mF-45" edge="1">
          <mxGeometry x="-0.4631" relative="1" as="geometry">
            <mxPoint as="offset" />
          </mxGeometry>
        </mxCell>
        <mxCell id="QFJ6Mpv5sqVxcN6rN_mF-50" value="No" style="edgeStyle=orthogonalEdgeStyle;rounded=0;orthogonalLoop=1;jettySize=auto;html=1;exitX=0.5;exitY=0;exitDx=0;exitDy=0;exitPerimeter=0;entryX=0.5;entryY=1;entryDx=0;entryDy=0;" parent="1" source="QFJ6Mpv5sqVxcN6rN_mF-41" target="QFJ6Mpv5sqVxcN6rN_mF-33" edge="1">
          <mxGeometry x="-0.7251" relative="1" as="geometry">
            <mxPoint as="offset" />
            <Array as="points">
              <mxPoint x="1842" y="3150" />
              <mxPoint x="1842" y="3150" />
            </Array>
          </mxGeometry>
        </mxCell>
        <mxCell id="QFJ6Mpv5sqVxcN6rN_mF-41" value="is found &lt;br&gt;still true?" style="strokeWidth=2;html=1;shape=mxgraph.flowchart.decision;whiteSpace=wrap;" parent="1" vertex="1">
          <mxGeometry x="1792" y="3160" width="100" height="100" as="geometry" />
        </mxCell>
        <mxCell id="QFJ6Mpv5sqVxcN6rN_mF-51" style="edgeStyle=orthogonalEdgeStyle;rounded=0;orthogonalLoop=1;jettySize=auto;html=1;exitX=0.5;exitY=0;exitDx=0;exitDy=0;entryX=0;entryY=0.5;entryDx=0;entryDy=0;" parent="1" source="QFJ6Mpv5sqVxcN6rN_mF-45" target="QFJ6Mpv5sqVxcN6rN_mF-33" edge="1">
          <mxGeometry relative="1" as="geometry" />
        </mxCell>
        <mxCell id="QFJ6Mpv5sqVxcN6rN_mF-45" value="add one to count" style="rounded=1;whiteSpace=wrap;html=1;absoluteArcSize=1;arcSize=14;strokeWidth=2;" parent="1" vertex="1">
          <mxGeometry x="1669" y="2990" width="120" height="60" as="geometry" />
        </mxCell>
        <mxCell id="QFJ6Mpv5sqVxcN6rN_mF-48" value="Yes" style="edgeStyle=orthogonalEdgeStyle;rounded=0;orthogonalLoop=1;jettySize=auto;html=1;exitX=0;exitY=0.5;exitDx=0;exitDy=0;exitPerimeter=0;entryX=1;entryY=0.5;entryDx=0;entryDy=0;entryPerimeter=0;" parent="1" source="QFJ6Mpv5sqVxcN6rN_mF-39" target="QFJ6Mpv5sqVxcN6rN_mF-41" edge="1">
          <mxGeometry relative="1" as="geometry" />
        </mxCell>
        <mxCell id="QFJ6Mpv5sqVxcN6rN_mF-53" style="edgeStyle=orthogonalEdgeStyle;rounded=0;orthogonalLoop=1;jettySize=auto;html=1;exitX=0;exitY=0.5;exitDx=0;exitDy=0;entryX=0.5;entryY=0;entryDx=0;entryDy=0;entryPerimeter=0;" parent="1" source="QFJ6Mpv5sqVxcN6rN_mF-37" target="QFJ6Mpv5sqVxcN6rN_mF-39" edge="1">
          <mxGeometry relative="1" as="geometry">
            <Array as="points">
              <mxPoint x="2072" y="3040" />
            </Array>
          </mxGeometry>
        </mxCell>
        <mxCell id="QFJ6Mpv5sqVxcN6rN_mF-57" value="Yes" style="edgeStyle=orthogonalEdgeStyle;rounded=0;orthogonalLoop=1;jettySize=auto;html=1;exitX=1;exitY=0.5;exitDx=0;exitDy=0;exitPerimeter=0;entryX=0.5;entryY=1;entryDx=0;entryDy=0;" parent="1" source="QFJ6Mpv5sqVxcN6rN_mF-54" target="QFJ6Mpv5sqVxcN6rN_mF-56" edge="1">
          <mxGeometry x="-0.6257" relative="1" as="geometry">
            <mxPoint x="2259" y="3360" as="sourcePoint" />
            <mxPoint as="offset" />
          </mxGeometry>
        </mxCell>
        <mxCell id="1d8WR8wzsqjOdhYR17wt-126" value="No" style="edgeStyle=orthogonalEdgeStyle;rounded=0;orthogonalLoop=1;jettySize=auto;html=1;exitX=0;exitY=0.5;exitDx=0;exitDy=0;exitPerimeter=0;entryX=0.5;entryY=1;entryDx=0;entryDy=0;" parent="1" source="QFJ6Mpv5sqVxcN6rN_mF-54" target="QFJ6Mpv5sqVxcN6rN_mF-59" edge="1">
          <mxGeometry x="-0.7545" relative="1" as="geometry">
            <Array as="points">
              <mxPoint x="1842" y="3465" />
            </Array>
            <mxPoint as="offset" />
          </mxGeometry>
        </mxCell>
        <mxCell id="QFJ6Mpv5sqVxcN6rN_mF-54" value="does the &lt;br&gt;current pos + i&lt;br&gt;match the &lt;br&gt;pattern offset by i?" style="strokeWidth=2;html=1;shape=mxgraph.flowchart.decision;whiteSpace=wrap;" parent="1" vertex="1">
          <mxGeometry x="1987" y="3380" width="170" height="170" as="geometry" />
        </mxCell>
        <mxCell id="QFJ6Mpv5sqVxcN6rN_mF-55" value="No" style="edgeStyle=orthogonalEdgeStyle;rounded=0;orthogonalLoop=1;jettySize=auto;html=1;exitX=0.5;exitY=1;exitDx=0;exitDy=0;exitPerimeter=0;entryX=0.5;entryY=0;entryDx=0;entryDy=0;entryPerimeter=0;" parent="1" source="QFJ6Mpv5sqVxcN6rN_mF-39" target="QFJ6Mpv5sqVxcN6rN_mF-54" edge="1">
          <mxGeometry x="-0.6944" relative="1" as="geometry">
            <mxPoint x="2344" y="3275" as="targetPoint" />
            <mxPoint as="offset" />
          </mxGeometry>
        </mxCell>
        <mxCell id="QFJ6Mpv5sqVxcN6rN_mF-56" value="Increase i by 1" style="rounded=1;whiteSpace=wrap;html=1;absoluteArcSize=1;arcSize=14;strokeWidth=2;" parent="1" vertex="1">
          <mxGeometry x="2198" y="3300" width="170" height="60" as="geometry" />
        </mxCell>
        <mxCell id="QFJ6Mpv5sqVxcN6rN_mF-59" value="Found is false" style="rounded=1;whiteSpace=wrap;html=1;absoluteArcSize=1;arcSize=14;strokeWidth=2;" parent="1" vertex="1">
          <mxGeometry x="1782" y="3330" width="120" height="60" as="geometry" />
        </mxCell>
        <mxCell id="QFJ6Mpv5sqVxcN6rN_mF-61" style="edgeStyle=orthogonalEdgeStyle;rounded=0;orthogonalLoop=1;jettySize=auto;html=1;exitX=0.5;exitY=0;exitDx=0;exitDy=0;entryX=0.5;entryY=1;entryDx=0;entryDy=0;entryPerimeter=0;" parent="1" source="QFJ6Mpv5sqVxcN6rN_mF-59" target="QFJ6Mpv5sqVxcN6rN_mF-41" edge="1">
          <mxGeometry relative="1" as="geometry" />
        </mxCell>
        <mxCell id="1d8WR8wzsqjOdhYR17wt-5" style="edgeStyle=orthogonalEdgeStyle;rounded=0;orthogonalLoop=1;jettySize=auto;html=1;exitX=1;exitY=0.5;exitDx=0;exitDy=0;entryX=0;entryY=0.5;entryDx=0;entryDy=0;" parent="1" source="1d8WR8wzsqjOdhYR17wt-1" target="1d8WR8wzsqjOdhYR17wt-4" edge="1">
          <mxGeometry relative="1" as="geometry" />
        </mxCell>
        <mxCell id="1d8WR8wzsqjOdhYR17wt-1" value="Define current pattern" style="verticalLabelPosition=bottom;verticalAlign=top;html=1;shape=hexagon;perimeter=hexagonPerimeter2;arcSize=6;size=0.27;" parent="1" vertex="1">
          <mxGeometry x="1260" y="1869" width="100" height="60" as="geometry" />
        </mxCell>
        <mxCell id="1d8WR8wzsqjOdhYR17wt-2" value="Append new process to process list" style="rounded=1;whiteSpace=wrap;html=1;absoluteArcSize=1;arcSize=14;strokeWidth=2;" parent="1" vertex="1">
          <mxGeometry x="1440" y="1729" width="100" height="60" as="geometry" />
        </mxCell>
        <mxCell id="1d8WR8wzsqjOdhYR17wt-6" style="edgeStyle=orthogonalEdgeStyle;rounded=0;orthogonalLoop=1;jettySize=auto;html=1;exitX=1;exitY=0.5;exitDx=0;exitDy=0;entryX=1;entryY=0.5;entryDx=0;entryDy=0;" parent="1" source="1d8WR8wzsqjOdhYR17wt-4" target="1d8WR8wzsqjOdhYR17wt-2" edge="1">
          <mxGeometry relative="1" as="geometry">
            <Array as="points">
              <mxPoint x="1570" y="1899" />
              <mxPoint x="1570" y="1759" />
            </Array>
          </mxGeometry>
        </mxCell>
        <mxCell id="1d8WR8wzsqjOdhYR17wt-4" value="Define new process" style="verticalLabelPosition=bottom;verticalAlign=top;html=1;shape=hexagon;perimeter=hexagonPerimeter2;arcSize=6;size=0.27;" parent="1" vertex="1">
          <mxGeometry x="1440" y="1869" width="100" height="60" as="geometry" />
        </mxCell>
        <mxCell id="1d8WR8wzsqjOdhYR17wt-9" style="edgeStyle=orthogonalEdgeStyle;rounded=0;orthogonalLoop=1;jettySize=auto;html=1;exitX=1;exitY=0.5;exitDx=0;exitDy=0;exitPerimeter=0;entryX=0.5;entryY=0;entryDx=0;entryDy=0;" parent="1" source="QFJ6Mpv5sqVxcN6rN_mF-25" target="QFJ6Mpv5sqVxcN6rN_mF-26" edge="1">
          <mxGeometry relative="1" as="geometry">
            <mxPoint x="1842" y="2519" as="targetPoint" />
          </mxGeometry>
        </mxCell>
        <mxCell id="1d8WR8wzsqjOdhYR17wt-31" value="Yes" style="edgeStyle=orthogonalEdgeStyle;rounded=0;orthogonalLoop=1;jettySize=auto;html=1;exitX=0;exitY=0.5;exitDx=0;exitDy=0;exitPerimeter=0;entryX=0.5;entryY=0;entryDx=0;entryDy=0;" parent="1" source="1d8WR8wzsqjOdhYR17wt-14" target="1d8WR8wzsqjOdhYR17wt-34" edge="1">
          <mxGeometry x="-0.8534" relative="1" as="geometry">
            <mxPoint x="903.5" y="2388" as="targetPoint" />
            <mxPoint as="offset" />
          </mxGeometry>
        </mxCell>
        <mxCell id="1d8WR8wzsqjOdhYR17wt-14" value="is i more than n" style="strokeWidth=2;html=1;shape=mxgraph.flowchart.loop_limit;whiteSpace=wrap;" parent="1" vertex="1">
          <mxGeometry x="1260" y="2139" width="100" height="60" as="geometry" />
        </mxCell>
        <mxCell id="1d8WR8wzsqjOdhYR17wt-15" value="add 1 to i" style="rounded=1;whiteSpace=wrap;html=1;absoluteArcSize=1;arcSize=14;strokeWidth=2;" parent="1" vertex="1">
          <mxGeometry x="1470" y="2139" width="100" height="60" as="geometry" />
        </mxCell>
        <mxCell id="1d8WR8wzsqjOdhYR17wt-17" value="" style="verticalLabelPosition=bottom;verticalAlign=top;html=1;shape=mxgraph.flowchart.parallel_mode;pointerEvents=1" parent="1" vertex="1">
          <mxGeometry x="1262.5" y="2259" width="95" height="40" as="geometry" />
        </mxCell>
        <mxCell id="1d8WR8wzsqjOdhYR17wt-18" value="Search &lt;br&gt;(text-segment and pattern)" style="verticalLabelPosition=bottom;verticalAlign=top;html=1;shape=mxgraph.flowchart.on-page_reference;fillColor=#d80073;fontColor=#ffffff;strokeColor=#A50040;" parent="1" vertex="1">
          <mxGeometry x="1390" y="2343.75" width="60" height="60" as="geometry" />
        </mxCell>
        <mxCell id="1d8WR8wzsqjOdhYR17wt-21" style="edgeStyle=orthogonalEdgeStyle;rounded=0;orthogonalLoop=1;jettySize=auto;html=1;exitX=0.5;exitY=1;exitDx=0;exitDy=0;exitPerimeter=0;entryX=0;entryY=0.5;entryDx=0;entryDy=0;entryPerimeter=0;" parent="1" source="1d8WR8wzsqjOdhYR17wt-17" target="1d8WR8wzsqjOdhYR17wt-18" edge="1">
          <mxGeometry relative="1" as="geometry" />
        </mxCell>
        <mxCell id="1d8WR8wzsqjOdhYR17wt-29" value="Start Process" style="edgeLabel;html=1;align=center;verticalAlign=middle;resizable=0;points=[];" parent="1d8WR8wzsqjOdhYR17wt-21" vertex="1" connectable="0">
          <mxGeometry x="-0.2432" y="-1" relative="1" as="geometry">
            <mxPoint as="offset" />
          </mxGeometry>
        </mxCell>
        <mxCell id="1d8WR8wzsqjOdhYR17wt-25" style="edgeStyle=orthogonalEdgeStyle;rounded=0;orthogonalLoop=1;jettySize=auto;html=1;exitX=0.5;exitY=0;exitDx=0;exitDy=0;exitPerimeter=0;entryX=0.5;entryY=1;entryDx=0;entryDy=0;" parent="1" source="1d8WR8wzsqjOdhYR17wt-22" target="1d8WR8wzsqjOdhYR17wt-15" edge="1">
          <mxGeometry relative="1" as="geometry" />
        </mxCell>
        <mxCell id="1d8WR8wzsqjOdhYR17wt-22" value="" style="verticalLabelPosition=bottom;verticalAlign=top;html=1;shape=mxgraph.flowchart.parallel_mode;pointerEvents=1" parent="1" vertex="1">
          <mxGeometry x="1472.5" y="2259" width="95" height="40" as="geometry" />
        </mxCell>
        <mxCell id="1d8WR8wzsqjOdhYR17wt-23" style="edgeStyle=orthogonalEdgeStyle;rounded=0;orthogonalLoop=1;jettySize=auto;html=1;exitX=1;exitY=0.5;exitDx=0;exitDy=0;exitPerimeter=0;entryX=0.5;entryY=1;entryDx=0;entryDy=0;entryPerimeter=0;" parent="1" source="1d8WR8wzsqjOdhYR17wt-18" target="1d8WR8wzsqjOdhYR17wt-22" edge="1">
          <mxGeometry relative="1" as="geometry" />
        </mxCell>
        <mxCell id="1d8WR8wzsqjOdhYR17wt-24" value="No" style="edgeStyle=orthogonalEdgeStyle;rounded=0;orthogonalLoop=1;jettySize=auto;html=1;exitX=0.5;exitY=1;exitDx=0;exitDy=0;exitPerimeter=0;entryX=0.5;entryY=0;entryDx=0;entryDy=0;entryPerimeter=0;" parent="1" source="1d8WR8wzsqjOdhYR17wt-14" target="1d8WR8wzsqjOdhYR17wt-17" edge="1">
          <mxGeometry x="-0.3273" relative="1" as="geometry">
            <mxPoint as="offset" />
          </mxGeometry>
        </mxCell>
        <mxCell id="1d8WR8wzsqjOdhYR17wt-26" style="edgeStyle=orthogonalEdgeStyle;rounded=0;orthogonalLoop=1;jettySize=auto;html=1;exitX=0;exitY=0.5;exitDx=0;exitDy=0;entryX=1;entryY=0.5;entryDx=0;entryDy=0;entryPerimeter=0;" parent="1" source="1d8WR8wzsqjOdhYR17wt-15" target="1d8WR8wzsqjOdhYR17wt-14" edge="1">
          <mxGeometry relative="1" as="geometry" />
        </mxCell>
        <mxCell id="1d8WR8wzsqjOdhYR17wt-27" value="i is 0" style="verticalLabelPosition=bottom;verticalAlign=top;html=1;shape=hexagon;perimeter=hexagonPerimeter2;arcSize=6;size=0.27;" parent="1" vertex="1">
          <mxGeometry x="1080" y="2018" width="100" height="60" as="geometry" />
        </mxCell>
        <mxCell id="1d8WR8wzsqjOdhYR17wt-28" style="edgeStyle=orthogonalEdgeStyle;rounded=0;orthogonalLoop=1;jettySize=auto;html=1;exitX=1;exitY=0.5;exitDx=0;exitDy=0;entryX=0.5;entryY=0;entryDx=0;entryDy=0;entryPerimeter=0;" parent="1" source="1d8WR8wzsqjOdhYR17wt-27" target="1d8WR8wzsqjOdhYR17wt-14" edge="1">
          <mxGeometry relative="1" as="geometry" />
        </mxCell>
        <mxCell id="1d8WR8wzsqjOdhYR17wt-34" value="i is 0" style="verticalLabelPosition=bottom;verticalAlign=top;html=1;shape=hexagon;perimeter=hexagonPerimeter2;arcSize=6;size=0.27;" parent="1" vertex="1">
          <mxGeometry x="1080" y="2509" width="100" height="60" as="geometry" />
        </mxCell>
        <mxCell id="1d8WR8wzsqjOdhYR17wt-38" value="No" style="edgeStyle=orthogonalEdgeStyle;rounded=0;orthogonalLoop=1;jettySize=auto;html=1;exitX=0.5;exitY=1;exitDx=0;exitDy=0;exitPerimeter=0;entryX=0.5;entryY=0;entryDx=0;entryDy=0;" parent="1" source="1d8WR8wzsqjOdhYR17wt-35" target="1d8WR8wzsqjOdhYR17wt-39" edge="1">
          <mxGeometry x="-0.2449" y="-1" relative="1" as="geometry">
            <mxPoint as="offset" />
          </mxGeometry>
        </mxCell>
        <mxCell id="1d8WR8wzsqjOdhYR17wt-35" value="is i more than n" style="strokeWidth=2;html=1;shape=mxgraph.flowchart.loop_limit;whiteSpace=wrap;" parent="1" vertex="1">
          <mxGeometry x="1260" y="2639" width="100" height="60" as="geometry" />
        </mxCell>
        <mxCell id="1d8WR8wzsqjOdhYR17wt-36" style="edgeStyle=orthogonalEdgeStyle;rounded=0;orthogonalLoop=1;jettySize=auto;html=1;exitX=1;exitY=0.5;exitDx=0;exitDy=0;entryX=0.5;entryY=0;entryDx=0;entryDy=0;entryPerimeter=0;" parent="1" source="1d8WR8wzsqjOdhYR17wt-34" target="1d8WR8wzsqjOdhYR17wt-35" edge="1">
          <mxGeometry relative="1" as="geometry" />
        </mxCell>
        <mxCell id="1d8WR8wzsqjOdhYR17wt-37" value="add 1 to i" style="rounded=1;whiteSpace=wrap;html=1;absoluteArcSize=1;arcSize=14;strokeWidth=2;" parent="1" vertex="1">
          <mxGeometry x="1450" y="2639" width="100" height="60" as="geometry" />
        </mxCell>
        <mxCell id="1d8WR8wzsqjOdhYR17wt-120" style="edgeStyle=orthogonalEdgeStyle;rounded=0;orthogonalLoop=1;jettySize=auto;html=1;exitX=1;exitY=0.5;exitDx=0;exitDy=0;entryX=0;entryY=0.5;entryDx=0;entryDy=0;" parent="1" source="1d8WR8wzsqjOdhYR17wt-39" target="1d8WR8wzsqjOdhYR17wt-42" edge="1">
          <mxGeometry relative="1" as="geometry" />
        </mxCell>
        <mxCell id="1d8WR8wzsqjOdhYR17wt-39" value="wait for process &lt;br&gt;to end" style="rounded=1;whiteSpace=wrap;html=1;absoluteArcSize=1;arcSize=14;strokeWidth=2;" parent="1" vertex="1">
          <mxGeometry x="1260" y="2870" width="100" height="60" as="geometry" />
        </mxCell>
        <mxCell id="1d8WR8wzsqjOdhYR17wt-121" style="edgeStyle=orthogonalEdgeStyle;rounded=0;orthogonalLoop=1;jettySize=auto;html=1;exitX=0.5;exitY=0;exitDx=0;exitDy=0;entryX=0.5;entryY=1;entryDx=0;entryDy=0;" parent="1" source="1d8WR8wzsqjOdhYR17wt-42" target="1d8WR8wzsqjOdhYR17wt-37" edge="1">
          <mxGeometry relative="1" as="geometry">
            <Array as="points">
              <mxPoint x="1500" y="2849" />
              <mxPoint x="1500" y="2849" />
            </Array>
          </mxGeometry>
        </mxCell>
        <mxCell id="1d8WR8wzsqjOdhYR17wt-42" value="Add return queue to name counts" style="rounded=1;whiteSpace=wrap;html=1;absoluteArcSize=1;arcSize=14;strokeWidth=2;" parent="1" vertex="1">
          <mxGeometry x="1450" y="2870" width="100" height="60" as="geometry" />
        </mxCell>
        <mxCell id="1d8WR8wzsqjOdhYR17wt-44" value="Yes" style="edgeStyle=orthogonalEdgeStyle;rounded=0;orthogonalLoop=1;jettySize=auto;html=1;exitX=0;exitY=0.5;exitDx=0;exitDy=0;exitPerimeter=0;entryX=0.5;entryY=1;entryDx=0;entryDy=0;entryPerimeter=0;" parent="1" source="1d8WR8wzsqjOdhYR17wt-35" target="QFJ6Mpv5sqVxcN6rN_mF-11" edge="1">
          <mxGeometry x="-0.9352" relative="1" as="geometry">
            <mxPoint as="offset" />
          </mxGeometry>
        </mxCell>
        <mxCell id="1d8WR8wzsqjOdhYR17wt-48" style="edgeStyle=orthogonalEdgeStyle;rounded=0;orthogonalLoop=1;jettySize=auto;html=1;exitX=0;exitY=0.5;exitDx=0;exitDy=0;entryX=1;entryY=0.5;entryDx=0;entryDy=0;entryPerimeter=0;" parent="1" source="1d8WR8wzsqjOdhYR17wt-2" target="QFJ6Mpv5sqVxcN6rN_mF-21" edge="1">
          <mxGeometry relative="1" as="geometry" />
        </mxCell>
        <mxCell id="1d8WR8wzsqjOdhYR17wt-104" value="Define Name Counts" style="verticalLabelPosition=bottom;verticalAlign=top;html=1;shape=hexagon;perimeter=hexagonPerimeter2;arcSize=6;size=0.27;" parent="1" vertex="1">
          <mxGeometry x="910" y="801" width="100" height="60" as="geometry" />
        </mxCell>
        <mxCell id="1d8WR8wzsqjOdhYR17wt-106" style="edgeStyle=orthogonalEdgeStyle;rounded=0;orthogonalLoop=1;jettySize=auto;html=1;exitX=0;exitY=0.5;exitDx=0;exitDy=0;entryX=0.5;entryY=0;entryDx=0;entryDy=0;entryPerimeter=0;" parent="1" source="1d8WR8wzsqjOdhYR17wt-104" target="QFJ6Mpv5sqVxcN6rN_mF-1" edge="1">
          <mxGeometry relative="1" as="geometry" />
        </mxCell>
        <mxCell id="1d8WR8wzsqjOdhYR17wt-107" value="Return Name Counts" style="strokeWidth=2;html=1;shape=mxgraph.flowchart.terminator;whiteSpace=wrap;" parent="1" vertex="1">
          <mxGeometry x="777" y="1270" width="100" height="60" as="geometry" />
        </mxCell>
        <mxCell id="1d8WR8wzsqjOdhYR17wt-108" value="&lt;span style=&quot;color: rgb(240, 240, 240); font-family: Helvetica; font-size: 12px; font-style: normal; font-variant-ligatures: normal; font-variant-caps: normal; font-weight: 400; letter-spacing: normal; orphans: 2; text-align: center; text-indent: 0px; text-transform: none; widows: 2; word-spacing: 0px; -webkit-text-stroke-width: 0px; background-color: rgb(27, 29, 30); text-decoration-thickness: initial; text-decoration-style: initial; text-decoration-color: initial; float: none; display: inline !important;&quot;&gt;Return Count to Queue&lt;/span&gt;" style="strokeWidth=2;html=1;shape=mxgraph.flowchart.terminator;whiteSpace=wrap;" parent="1" vertex="1">
          <mxGeometry x="2233" y="2630" width="100" height="60" as="geometry" />
        </mxCell>
        <mxCell id="1d8WR8wzsqjOdhYR17wt-109" value="return div as n*n, text and length&amp;nbsp;" style="strokeWidth=2;html=1;shape=mxgraph.flowchart.terminator;whiteSpace=wrap;" parent="1" vertex="1">
          <mxGeometry x="1932" y="2259" width="100" height="60" as="geometry" />
        </mxCell>
        <mxCell id="1d8WR8wzsqjOdhYR17wt-110" value="return div as n, text and length&amp;nbsp;" style="strokeWidth=2;html=1;shape=mxgraph.flowchart.terminator;whiteSpace=wrap;" parent="1" vertex="1">
          <mxGeometry x="1820" y="2109" width="100" height="60" as="geometry" />
        </mxCell>
        <mxCell id="1d8WR8wzsqjOdhYR17wt-111" value="&lt;span style=&quot;color: rgb(240, 240, 240); font-family: Helvetica; font-size: 12px; font-style: normal; font-variant-ligatures: normal; font-variant-caps: normal; font-weight: 400; letter-spacing: normal; orphans: 2; text-align: center; text-indent: 0px; text-transform: none; widows: 2; word-spacing: 0px; -webkit-text-stroke-width: 0px; background-color: rgb(27, 29, 30); text-decoration-thickness: initial; text-decoration-style: initial; text-decoration-color: initial; float: none; display: inline !important;&quot;&gt;return div as 1, text and length&amp;nbsp;&lt;/span&gt;" style="strokeWidth=2;html=1;shape=mxgraph.flowchart.terminator;whiteSpace=wrap;" parent="1" vertex="1">
          <mxGeometry x="1752" y="1880" width="100" height="60" as="geometry" />
        </mxCell>
        <mxCell id="1d8WR8wzsqjOdhYR17wt-112" value="Return converted value" style="strokeWidth=2;html=1;shape=mxgraph.flowchart.terminator;whiteSpace=wrap;" parent="1" vertex="1">
          <mxGeometry x="2233" y="741" width="100" height="60" as="geometry" />
        </mxCell>
        <mxCell id="1d8WR8wzsqjOdhYR17wt-113" style="edgeStyle=orthogonalEdgeStyle;rounded=0;orthogonalLoop=1;jettySize=auto;html=1;exitX=1;exitY=0.5;exitDx=0;exitDy=0;entryX=0;entryY=0.5;entryDx=0;entryDy=0;entryPerimeter=0;" parent="1" source="qGw09s9Mnq_4pPBjvhij-25" target="1d8WR8wzsqjOdhYR17wt-112" edge="1">
          <mxGeometry relative="1" as="geometry" />
        </mxCell>
        <mxCell id="1d8WR8wzsqjOdhYR17wt-114" value="Return 6" style="strokeWidth=2;html=1;shape=mxgraph.flowchart.terminator;whiteSpace=wrap;" parent="1" vertex="1">
          <mxGeometry x="2173" y="391" width="100" height="60" as="geometry" />
        </mxCell>
        <mxCell id="1d8WR8wzsqjOdhYR17wt-116" value="Return 2" style="strokeWidth=2;html=1;shape=mxgraph.flowchart.terminator;whiteSpace=wrap;" parent="1" vertex="1">
          <mxGeometry x="1767" y="410" width="100" height="60" as="geometry" />
        </mxCell>
        <mxCell id="1d8WR8wzsqjOdhYR17wt-117" value="Return 4" style="strokeWidth=2;html=1;shape=mxgraph.flowchart.terminator;whiteSpace=wrap;" parent="1" vertex="1">
          <mxGeometry x="1967" y="500" width="100" height="60" as="geometry" />
        </mxCell>
        <mxCell id="1d8WR8wzsqjOdhYR17wt-122" style="edgeStyle=orthogonalEdgeStyle;rounded=0;orthogonalLoop=1;jettySize=auto;html=1;exitX=0;exitY=0.5;exitDx=0;exitDy=0;entryX=1;entryY=0.5;entryDx=0;entryDy=0;entryPerimeter=0;" parent="1" source="1d8WR8wzsqjOdhYR17wt-37" target="1d8WR8wzsqjOdhYR17wt-35" edge="1">
          <mxGeometry relative="1" as="geometry" />
        </mxCell>
        <mxCell id="1d8WR8wzsqjOdhYR17wt-124" style="edgeStyle=orthogonalEdgeStyle;rounded=0;orthogonalLoop=1;jettySize=auto;html=1;exitX=0.5;exitY=0;exitDx=0;exitDy=0;entryX=0;entryY=0.5;entryDx=0;entryDy=0;entryPerimeter=0;" parent="1" source="QFJ6Mpv5sqVxcN6rN_mF-33" target="QFJ6Mpv5sqVxcN6rN_mF-29" edge="1">
          <mxGeometry relative="1" as="geometry" />
        </mxCell>
        <mxCell id="1d8WR8wzsqjOdhYR17wt-125" style="edgeStyle=orthogonalEdgeStyle;rounded=0;orthogonalLoop=1;jettySize=auto;html=1;exitX=0.5;exitY=0;exitDx=0;exitDy=0;entryX=1;entryY=0.5;entryDx=0;entryDy=0;entryPerimeter=0;" parent="1" source="QFJ6Mpv5sqVxcN6rN_mF-56" target="QFJ6Mpv5sqVxcN6rN_mF-39" edge="1">
          <mxGeometry relative="1" as="geometry" />
        </mxCell>
        <mxCell id="nNyaXuhyY7WsVw48KWjg-1" value="Define loop = 0&lt;br&gt;Define pos = 0&lt;br&gt;Define END = LENGTH&lt;br&gt;Define Current Pattern&lt;br&gt;Define current pattern length" style="verticalLabelPosition=bottom;verticalAlign=top;html=1;shape=hexagon;perimeter=hexagonPerimeter2;arcSize=6;size=0.27;" parent="1" vertex="1">
          <mxGeometry x="550" y="1247" width="100" height="60" as="geometry" />
        </mxCell>
        <mxCell id="nNyaXuhyY7WsVw48KWjg-6" value="Yes" style="edgeStyle=orthogonalEdgeStyle;rounded=0;orthogonalLoop=1;jettySize=auto;html=1;exitX=0.5;exitY=0;exitDx=0;exitDy=0;exitPerimeter=0;entryX=1;entryY=0.5;entryDx=0;entryDy=0;" parent="1" source="nNyaXuhyY7WsVw48KWjg-3" target="nNyaXuhyY7WsVw48KWjg-5" edge="1">
          <mxGeometry x="-0.5" relative="1" as="geometry">
            <Array as="points">
              <mxPoint x="630" y="1509" />
            </Array>
            <mxPoint as="offset" />
          </mxGeometry>
        </mxCell>
        <mxCell id="nNyaXuhyY7WsVw48KWjg-9" value="No" style="edgeStyle=orthogonalEdgeStyle;rounded=0;orthogonalLoop=1;jettySize=auto;html=1;exitX=0;exitY=0.5;exitDx=0;exitDy=0;exitPerimeter=0;entryX=1;entryY=0.5;entryDx=0;entryDy=0;" parent="1" source="nNyaXuhyY7WsVw48KWjg-3" target="nNyaXuhyY7WsVw48KWjg-8" edge="1">
          <mxGeometry relative="1" as="geometry" />
        </mxCell>
        <mxCell id="nNyaXuhyY7WsVw48KWjg-3" value="is pos bigger than the length of TEXT" style="strokeWidth=2;html=1;shape=mxgraph.flowchart.loop_limit;whiteSpace=wrap;" parent="1" vertex="1">
          <mxGeometry x="578.5" y="1609" width="100" height="60" as="geometry" />
        </mxCell>
        <mxCell id="nNyaXuhyY7WsVw48KWjg-4" style="edgeStyle=orthogonalEdgeStyle;rounded=0;orthogonalLoop=1;jettySize=auto;html=1;exitX=1;exitY=0.5;exitDx=0;exitDy=0;entryX=1;entryY=0.5;entryDx=0;entryDy=0;entryPerimeter=0;" parent="1" source="nNyaXuhyY7WsVw48KWjg-1" target="nNyaXuhyY7WsVw48KWjg-3" edge="1">
          <mxGeometry relative="1" as="geometry">
            <Array as="points">
              <mxPoint x="720" y="1277" />
              <mxPoint x="720" y="1639" />
            </Array>
          </mxGeometry>
        </mxCell>
        <mxCell id="nNyaXuhyY7WsVw48KWjg-5" value="move to next pattern" style="rounded=1;whiteSpace=wrap;html=1;absoluteArcSize=1;arcSize=14;strokeWidth=2;" parent="1" vertex="1">
          <mxGeometry x="250" y="1409" width="100" height="60" as="geometry" />
        </mxCell>
        <mxCell id="nNyaXuhyY7WsVw48KWjg-7" style="edgeStyle=orthogonalEdgeStyle;rounded=0;orthogonalLoop=1;jettySize=auto;html=1;exitX=0.5;exitY=0;exitDx=0;exitDy=0;entryX=0;entryY=0.5;entryDx=0;entryDy=0;entryPerimeter=0;" parent="1" source="nNyaXuhyY7WsVw48KWjg-5" target="QFJ6Mpv5sqVxcN6rN_mF-7" edge="1">
          <mxGeometry relative="1" as="geometry">
            <mxPoint x="609.9999999999991" y="1257" as="targetPoint" />
          </mxGeometry>
        </mxCell>
        <mxCell id="nNyaXuhyY7WsVw48KWjg-8" value="Define processes list" style="verticalLabelPosition=bottom;verticalAlign=top;html=1;shape=hexagon;perimeter=hexagonPerimeter2;arcSize=6;size=0.27;" parent="1" vertex="1">
          <mxGeometry x="421" y="1609" width="100" height="60" as="geometry" />
        </mxCell>
        <mxCell id="nNyaXuhyY7WsVw48KWjg-12" value="Yes" style="edgeStyle=orthogonalEdgeStyle;rounded=0;orthogonalLoop=1;jettySize=auto;html=1;exitX=0.5;exitY=0;exitDx=0;exitDy=0;exitPerimeter=0;entryX=0.5;entryY=1;entryDx=0;entryDy=0;" parent="1" source="nNyaXuhyY7WsVw48KWjg-10" target="nNyaXuhyY7WsVw48KWjg-5" edge="1">
          <mxGeometry relative="1" as="geometry">
            <mxPoint x="300" y="1568.9999999999995" as="sourcePoint" />
            <mxPoint y="1" as="offset" />
          </mxGeometry>
        </mxCell>
        <mxCell id="nNyaXuhyY7WsVw48KWjg-14" value="No" style="edgeStyle=orthogonalEdgeStyle;rounded=0;orthogonalLoop=1;jettySize=auto;html=1;exitX=0;exitY=0.5;exitDx=0;exitDy=0;exitPerimeter=0;entryX=0.5;entryY=0;entryDx=0;entryDy=0;" parent="1" source="nNyaXuhyY7WsVw48KWjg-10" target="nNyaXuhyY7WsVw48KWjg-13" edge="1">
          <mxGeometry x="-0.6125" relative="1" as="geometry">
            <mxPoint as="offset" />
          </mxGeometry>
        </mxCell>
        <mxCell id="nNyaXuhyY7WsVw48KWjg-10" value="is end the same &lt;br&gt;as the length&lt;br&gt;&amp;nbsp;of text?" style="strokeWidth=2;html=1;shape=mxgraph.flowchart.decision;whiteSpace=wrap;" parent="1" vertex="1">
          <mxGeometry x="230" y="1569" width="140" height="140" as="geometry" />
        </mxCell>
        <mxCell id="nNyaXuhyY7WsVw48KWjg-11" style="edgeStyle=orthogonalEdgeStyle;rounded=0;orthogonalLoop=1;jettySize=auto;html=1;exitX=0;exitY=0.5;exitDx=0;exitDy=0;" parent="1" source="nNyaXuhyY7WsVw48KWjg-8" target="nNyaXuhyY7WsVw48KWjg-10" edge="1">
          <mxGeometry relative="1" as="geometry">
            <mxPoint x="470" y="1719" as="targetPoint" />
          </mxGeometry>
        </mxCell>
        <mxCell id="nNyaXuhyY7WsVw48KWjg-87" style="edgeStyle=orthogonalEdgeStyle;rounded=0;orthogonalLoop=1;jettySize=auto;html=1;exitX=1;exitY=0.5;exitDx=0;exitDy=0;entryX=0.5;entryY=0;entryDx=0;entryDy=0;" parent="1" source="nNyaXuhyY7WsVw48KWjg-13" target="nNyaXuhyY7WsVw48KWjg-15" edge="1">
          <mxGeometry relative="1" as="geometry" />
        </mxCell>
        <mxCell id="nNyaXuhyY7WsVw48KWjg-13" value="Define l_start as loop+1" style="verticalLabelPosition=bottom;verticalAlign=top;html=1;shape=hexagon;perimeter=hexagonPerimeter2;arcSize=6;size=0.27;" parent="1" vertex="1">
          <mxGeometry x="79" y="1779" width="100" height="60" as="geometry" />
        </mxCell>
        <mxCell id="nNyaXuhyY7WsVw48KWjg-15" value="i is 0" style="verticalLabelPosition=bottom;verticalAlign=top;html=1;shape=hexagon;perimeter=hexagonPerimeter2;arcSize=6;size=0.27;" parent="1" vertex="1">
          <mxGeometry x="259" y="1880" width="100" height="60" as="geometry" />
        </mxCell>
        <mxCell id="nNyaXuhyY7WsVw48KWjg-20" value="No" style="edgeStyle=orthogonalEdgeStyle;rounded=0;orthogonalLoop=1;jettySize=auto;html=1;exitX=0.5;exitY=1;exitDx=0;exitDy=0;exitPerimeter=0;entryX=0.5;entryY=0;entryDx=0;entryDy=0;" parent="1" source="nNyaXuhyY7WsVw48KWjg-17" target="nNyaXuhyY7WsVw48KWjg-19" edge="1">
          <mxGeometry x="-0.5" relative="1" as="geometry">
            <mxPoint as="offset" />
          </mxGeometry>
        </mxCell>
        <mxCell id="nNyaXuhyY7WsVw48KWjg-71" value="Yes" style="edgeStyle=orthogonalEdgeStyle;rounded=0;orthogonalLoop=1;jettySize=auto;html=1;exitX=1;exitY=0.5;exitDx=0;exitDy=0;exitPerimeter=0;entryX=0.5;entryY=0;entryDx=0;entryDy=0;" parent="1" source="nNyaXuhyY7WsVw48KWjg-17" target="nNyaXuhyY7WsVw48KWjg-45" edge="1">
          <mxGeometry x="-0.4954" y="-1" relative="1" as="geometry">
            <mxPoint as="offset" />
          </mxGeometry>
        </mxCell>
        <mxCell id="nNyaXuhyY7WsVw48KWjg-17" value="is i more than n" style="strokeWidth=2;html=1;shape=mxgraph.flowchart.loop_limit;whiteSpace=wrap;" parent="1" vertex="1">
          <mxGeometry x="52.25" y="2040" width="100" height="60" as="geometry" />
        </mxCell>
        <mxCell id="nNyaXuhyY7WsVw48KWjg-18" style="edgeStyle=orthogonalEdgeStyle;rounded=0;orthogonalLoop=1;jettySize=auto;html=1;exitX=0;exitY=0.5;exitDx=0;exitDy=0;entryX=0.5;entryY=0;entryDx=0;entryDy=0;entryPerimeter=0;" parent="1" source="nNyaXuhyY7WsVw48KWjg-15" target="nNyaXuhyY7WsVw48KWjg-17" edge="1">
          <mxGeometry relative="1" as="geometry">
            <mxPoint x="509" y="2188.9999999999995" as="targetPoint" />
          </mxGeometry>
        </mxCell>
        <mxCell id="nNyaXuhyY7WsVw48KWjg-22" style="edgeStyle=orthogonalEdgeStyle;rounded=0;orthogonalLoop=1;jettySize=auto;html=1;exitX=0.5;exitY=1;exitDx=0;exitDy=0;entryX=1;entryY=0.5;entryDx=0;entryDy=0;" parent="1" source="nNyaXuhyY7WsVw48KWjg-19" target="nNyaXuhyY7WsVw48KWjg-21" edge="1">
          <mxGeometry relative="1" as="geometry" />
        </mxCell>
        <mxCell id="nNyaXuhyY7WsVw48KWjg-19" value="Increase loop by 1" style="rounded=1;whiteSpace=wrap;html=1;absoluteArcSize=1;arcSize=14;strokeWidth=2;" parent="1" vertex="1">
          <mxGeometry x="52.25" y="2180" width="100" height="60" as="geometry" />
        </mxCell>
        <mxCell id="nNyaXuhyY7WsVw48KWjg-21" value="Define START as &lt;br&gt;(position - (pattern length / 2))" style="verticalLabelPosition=bottom;verticalAlign=top;html=1;shape=hexagon;perimeter=hexagonPerimeter2;arcSize=6;size=0.27;" parent="1" vertex="1">
          <mxGeometry x="-56.75" y="2306.61" width="100" height="60" as="geometry" />
        </mxCell>
        <mxCell id="nNyaXuhyY7WsVw48KWjg-28" value="No" style="edgeStyle=orthogonalEdgeStyle;rounded=0;orthogonalLoop=1;jettySize=auto;html=1;exitX=0.5;exitY=1;exitDx=0;exitDy=0;exitPerimeter=0;entryX=0.5;entryY=0;entryDx=0;entryDy=0;" parent="1" source="nNyaXuhyY7WsVw48KWjg-23" target="nNyaXuhyY7WsVw48KWjg-30" edge="1">
          <mxGeometry x="-0.3333" relative="1" as="geometry">
            <mxPoint x="231" y="2953.11" as="targetPoint" />
            <mxPoint as="offset" />
          </mxGeometry>
        </mxCell>
        <mxCell id="nNyaXuhyY7WsVw48KWjg-88" value="Yes" style="edgeStyle=orthogonalEdgeStyle;rounded=0;orthogonalLoop=1;jettySize=auto;html=1;exitX=1;exitY=0.5;exitDx=0;exitDy=0;exitPerimeter=0;entryX=0;entryY=0.5;entryDx=0;entryDy=0;" parent="1" source="nNyaXuhyY7WsVw48KWjg-23" target="nNyaXuhyY7WsVw48KWjg-25" edge="1">
          <mxGeometry relative="1" as="geometry" />
        </mxCell>
        <mxCell id="nNyaXuhyY7WsVw48KWjg-23" value="is START&lt;br&gt;less than 0" style="strokeWidth=2;html=1;shape=mxgraph.flowchart.decision;whiteSpace=wrap;" parent="1" vertex="1">
          <mxGeometry x="-189" y="2564.61" width="100" height="100" as="geometry" />
        </mxCell>
        <mxCell id="nNyaXuhyY7WsVw48KWjg-24" style="edgeStyle=orthogonalEdgeStyle;rounded=0;orthogonalLoop=1;jettySize=auto;html=1;exitX=0;exitY=0.5;exitDx=0;exitDy=0;entryX=0.5;entryY=0;entryDx=0;entryDy=0;entryPerimeter=0;" parent="1" source="nNyaXuhyY7WsVw48KWjg-21" target="nNyaXuhyY7WsVw48KWjg-23" edge="1">
          <mxGeometry relative="1" as="geometry" />
        </mxCell>
        <mxCell id="nNyaXuhyY7WsVw48KWjg-29" style="edgeStyle=orthogonalEdgeStyle;rounded=0;orthogonalLoop=1;jettySize=auto;html=1;exitX=0.5;exitY=1;exitDx=0;exitDy=0;entryX=1;entryY=0.5;entryDx=0;entryDy=0;" parent="1" source="nNyaXuhyY7WsVw48KWjg-25" target="nNyaXuhyY7WsVw48KWjg-30" edge="1">
          <mxGeometry relative="1" as="geometry">
            <mxPoint x="281" y="2983.11" as="targetPoint" />
          </mxGeometry>
        </mxCell>
        <mxCell id="nNyaXuhyY7WsVw48KWjg-25" value="START is 0" style="rounded=1;whiteSpace=wrap;html=1;absoluteArcSize=1;arcSize=14;strokeWidth=2;" parent="1" vertex="1">
          <mxGeometry x="1" y="2585.61" width="100" height="60" as="geometry" />
        </mxCell>
        <mxCell id="nNyaXuhyY7WsVw48KWjg-30" value="END is pos + LENGTH + (pattern length / 2)" style="rounded=1;whiteSpace=wrap;html=1;absoluteArcSize=1;arcSize=14;strokeWidth=2;" parent="1" vertex="1">
          <mxGeometry x="-220" y="2724.61" width="160" height="60" as="geometry" />
        </mxCell>
        <mxCell id="nNyaXuhyY7WsVw48KWjg-34" value="Yes" style="edgeStyle=orthogonalEdgeStyle;rounded=0;orthogonalLoop=1;jettySize=auto;html=1;exitX=1;exitY=0.5;exitDx=0;exitDy=0;exitPerimeter=0;entryX=0;entryY=0.5;entryDx=0;entryDy=0;" parent="1" source="nNyaXuhyY7WsVw48KWjg-31" target="nNyaXuhyY7WsVw48KWjg-33" edge="1">
          <mxGeometry x="-0.1111" relative="1" as="geometry">
            <mxPoint as="offset" />
          </mxGeometry>
        </mxCell>
        <mxCell id="nNyaXuhyY7WsVw48KWjg-89" value="No" style="edgeStyle=orthogonalEdgeStyle;rounded=0;orthogonalLoop=1;jettySize=auto;html=1;exitX=0.5;exitY=1;exitDx=0;exitDy=0;exitPerimeter=0;entryX=0.5;entryY=0;entryDx=0;entryDy=0;" parent="1" source="nNyaXuhyY7WsVw48KWjg-31" target="nNyaXuhyY7WsVw48KWjg-35" edge="1">
          <mxGeometry relative="1" as="geometry" />
        </mxCell>
        <mxCell id="nNyaXuhyY7WsVw48KWjg-31" value="is END&lt;br&gt;more than TEXT length?" style="strokeWidth=2;html=1;shape=mxgraph.flowchart.decision;whiteSpace=wrap;" parent="1" vertex="1">
          <mxGeometry x="-189" y="2882.58" width="100" height="100" as="geometry" />
        </mxCell>
        <mxCell id="nNyaXuhyY7WsVw48KWjg-32" style="edgeStyle=orthogonalEdgeStyle;rounded=0;orthogonalLoop=1;jettySize=auto;html=1;exitX=0.5;exitY=1;exitDx=0;exitDy=0;entryX=0.5;entryY=0;entryDx=0;entryDy=0;entryPerimeter=0;" parent="1" source="nNyaXuhyY7WsVw48KWjg-30" target="nNyaXuhyY7WsVw48KWjg-31" edge="1">
          <mxGeometry relative="1" as="geometry" />
        </mxCell>
        <mxCell id="nNyaXuhyY7WsVw48KWjg-36" style="edgeStyle=orthogonalEdgeStyle;rounded=0;orthogonalLoop=1;jettySize=auto;html=1;exitX=0.5;exitY=1;exitDx=0;exitDy=0;entryX=1;entryY=0.5;entryDx=0;entryDy=0;" parent="1" source="nNyaXuhyY7WsVw48KWjg-33" target="nNyaXuhyY7WsVw48KWjg-35" edge="1">
          <mxGeometry relative="1" as="geometry" />
        </mxCell>
        <mxCell id="nNyaXuhyY7WsVw48KWjg-33" value="END is TEXT length" style="rounded=1;whiteSpace=wrap;html=1;absoluteArcSize=1;arcSize=14;strokeWidth=2;" parent="1" vertex="1">
          <mxGeometry x="1" y="2902.58" width="100" height="60" as="geometry" />
        </mxCell>
        <mxCell id="nNyaXuhyY7WsVw48KWjg-39" style="edgeStyle=orthogonalEdgeStyle;rounded=0;orthogonalLoop=1;jettySize=auto;html=1;entryX=0.5;entryY=1;entryDx=0;entryDy=0;exitX=0;exitY=0.5;exitDx=0;exitDy=0;" parent="1" source="nNyaXuhyY7WsVw48KWjg-35" target="nNyaXuhyY7WsVw48KWjg-38" edge="1">
          <mxGeometry relative="1" as="geometry">
            <mxPoint x="242.25" y="3065.85" as="sourcePoint" />
          </mxGeometry>
        </mxCell>
        <mxCell id="nNyaXuhyY7WsVw48KWjg-35" value="Define new process" style="verticalLabelPosition=bottom;verticalAlign=top;html=1;shape=hexagon;perimeter=hexagonPerimeter2;arcSize=6;size=0.27;" parent="1" vertex="1">
          <mxGeometry x="-189" y="3089.58" width="100" height="60" as="geometry" />
        </mxCell>
        <mxCell id="nNyaXuhyY7WsVw48KWjg-44" style="edgeStyle=orthogonalEdgeStyle;rounded=0;orthogonalLoop=1;jettySize=auto;html=1;exitX=0.5;exitY=0;exitDx=0;exitDy=0;entryX=0.5;entryY=1;entryDx=0;entryDy=0;" parent="1" source="nNyaXuhyY7WsVw48KWjg-38" target="nNyaXuhyY7WsVw48KWjg-41" edge="1">
          <mxGeometry relative="1" as="geometry" />
        </mxCell>
        <mxCell id="nNyaXuhyY7WsVw48KWjg-38" value="Append new process to process list" style="rounded=1;whiteSpace=wrap;html=1;absoluteArcSize=1;arcSize=14;strokeWidth=2;" parent="1" vertex="1">
          <mxGeometry x="-320" y="2905.97" width="100" height="60" as="geometry" />
        </mxCell>
        <mxCell id="nNyaXuhyY7WsVw48KWjg-41" value="add LENGTH to pos" style="rounded=1;whiteSpace=wrap;html=1;absoluteArcSize=1;arcSize=14;strokeWidth=2;" parent="1" vertex="1">
          <mxGeometry x="-320" y="2180" width="100" height="60" as="geometry" />
        </mxCell>
        <mxCell id="nNyaXuhyY7WsVw48KWjg-43" style="edgeStyle=orthogonalEdgeStyle;rounded=0;orthogonalLoop=1;jettySize=auto;html=1;exitX=0.5;exitY=0;exitDx=0;exitDy=0;entryX=0;entryY=0.5;entryDx=0;entryDy=0;entryPerimeter=0;" parent="1" source="nNyaXuhyY7WsVw48KWjg-41" target="nNyaXuhyY7WsVw48KWjg-17" edge="1">
          <mxGeometry relative="1" as="geometry">
            <mxPoint x="72.25" y="2070" as="targetPoint" />
          </mxGeometry>
        </mxCell>
        <mxCell id="nNyaXuhyY7WsVw48KWjg-45" value="i is 0" style="verticalLabelPosition=bottom;verticalAlign=top;html=1;shape=hexagon;perimeter=hexagonPerimeter2;arcSize=6;size=0.27;" parent="1" vertex="1">
          <mxGeometry x="239" y="2169" width="100" height="60" as="geometry" />
        </mxCell>
        <mxCell id="nNyaXuhyY7WsVw48KWjg-58" style="edgeStyle=orthogonalEdgeStyle;rounded=0;orthogonalLoop=1;jettySize=auto;html=1;exitX=1;exitY=0.5;exitDx=0;exitDy=0;entryX=0.5;entryY=0;entryDx=0;entryDy=0;entryPerimeter=0;" parent="1" source="nNyaXuhyY7WsVw48KWjg-45" target="nNyaXuhyY7WsVw48KWjg-75" edge="1">
          <mxGeometry relative="1" as="geometry">
            <mxPoint x="463.25" y="2178" as="targetPoint" />
          </mxGeometry>
        </mxCell>
        <mxCell id="nNyaXuhyY7WsVw48KWjg-59" value="i is 0" style="verticalLabelPosition=bottom;verticalAlign=top;html=1;shape=hexagon;perimeter=hexagonPerimeter2;arcSize=6;size=0.27;" parent="1" vertex="1">
          <mxGeometry x="478.5" y="2699" width="100" height="60" as="geometry" />
        </mxCell>
        <mxCell id="nNyaXuhyY7WsVw48KWjg-61" value="No" style="edgeStyle=orthogonalEdgeStyle;rounded=0;orthogonalLoop=1;jettySize=auto;html=1;exitX=0.5;exitY=1;exitDx=0;exitDy=0;exitPerimeter=0;entryX=0.5;entryY=0;entryDx=0;entryDy=0;" parent="1" source="nNyaXuhyY7WsVw48KWjg-62" target="nNyaXuhyY7WsVw48KWjg-65" edge="1">
          <mxGeometry x="-0.7163" y="-2" relative="1" as="geometry">
            <mxPoint as="offset" />
          </mxGeometry>
        </mxCell>
        <mxCell id="nNyaXuhyY7WsVw48KWjg-62" value="is i more than n" style="strokeWidth=2;html=1;shape=mxgraph.flowchart.loop_limit;whiteSpace=wrap;" parent="1" vertex="1">
          <mxGeometry x="404.75" y="2905.0000000000005" width="100" height="60" as="geometry" />
        </mxCell>
        <mxCell id="nNyaXuhyY7WsVw48KWjg-63" value="add 1 to i" style="rounded=1;whiteSpace=wrap;html=1;absoluteArcSize=1;arcSize=14;strokeWidth=2;" parent="1" vertex="1">
          <mxGeometry x="200" y="2905.000000000001" width="100" height="60" as="geometry" />
        </mxCell>
        <mxCell id="nNyaXuhyY7WsVw48KWjg-64" style="edgeStyle=orthogonalEdgeStyle;rounded=0;orthogonalLoop=1;jettySize=auto;html=1;exitX=0.5;exitY=1;exitDx=0;exitDy=0;entryX=1;entryY=0.5;entryDx=0;entryDy=0;" parent="1" source="nNyaXuhyY7WsVw48KWjg-65" target="nNyaXuhyY7WsVw48KWjg-67" edge="1">
          <mxGeometry relative="1" as="geometry" />
        </mxCell>
        <mxCell id="nNyaXuhyY7WsVw48KWjg-65" value="wait for process &lt;br&gt;to end" style="rounded=1;whiteSpace=wrap;html=1;absoluteArcSize=1;arcSize=14;strokeWidth=2;" parent="1" vertex="1">
          <mxGeometry x="404.75" y="3080" width="100" height="60" as="geometry" />
        </mxCell>
        <mxCell id="nNyaXuhyY7WsVw48KWjg-73" style="edgeStyle=orthogonalEdgeStyle;rounded=0;orthogonalLoop=1;jettySize=auto;html=1;exitX=0;exitY=0.5;exitDx=0;exitDy=0;entryX=0.5;entryY=1;entryDx=0;entryDy=0;" parent="1" source="nNyaXuhyY7WsVw48KWjg-67" target="nNyaXuhyY7WsVw48KWjg-63" edge="1">
          <mxGeometry relative="1" as="geometry">
            <mxPoint x="286.25" y="3276" as="targetPoint" />
          </mxGeometry>
        </mxCell>
        <mxCell id="nNyaXuhyY7WsVw48KWjg-67" value="Add return queue to name counts" style="rounded=1;whiteSpace=wrap;html=1;absoluteArcSize=1;arcSize=14;strokeWidth=2;" parent="1" vertex="1">
          <mxGeometry x="304.75" y="3220" width="100" height="60" as="geometry" />
        </mxCell>
        <mxCell id="nNyaXuhyY7WsVw48KWjg-68" style="edgeStyle=orthogonalEdgeStyle;rounded=0;orthogonalLoop=1;jettySize=auto;html=1;exitX=1;exitY=0.5;exitDx=0;exitDy=0;entryX=0;entryY=0.5;entryDx=0;entryDy=0;entryPerimeter=0;" parent="1" source="nNyaXuhyY7WsVw48KWjg-63" target="nNyaXuhyY7WsVw48KWjg-62" edge="1">
          <mxGeometry relative="1" as="geometry">
            <mxPoint x="292.25" y="3134.000000000001" as="sourcePoint" />
          </mxGeometry>
        </mxCell>
        <mxCell id="nNyaXuhyY7WsVw48KWjg-69" style="edgeStyle=orthogonalEdgeStyle;rounded=0;orthogonalLoop=1;jettySize=auto;html=1;exitX=0;exitY=0.5;exitDx=0;exitDy=0;entryX=0.5;entryY=0;entryDx=0;entryDy=0;entryPerimeter=0;" parent="1" source="nNyaXuhyY7WsVw48KWjg-59" target="nNyaXuhyY7WsVw48KWjg-62" edge="1">
          <mxGeometry relative="1" as="geometry">
            <Array as="points">
              <mxPoint x="454.75" y="2729" />
            </Array>
          </mxGeometry>
        </mxCell>
        <mxCell id="nNyaXuhyY7WsVw48KWjg-74" value="Yes" style="edgeStyle=orthogonalEdgeStyle;rounded=0;orthogonalLoop=1;jettySize=auto;html=1;exitX=1;exitY=0.5;exitDx=0;exitDy=0;exitPerimeter=0;entryX=0.5;entryY=1;entryDx=0;entryDy=0;entryPerimeter=0;" parent="1" source="nNyaXuhyY7WsVw48KWjg-62" target="nNyaXuhyY7WsVw48KWjg-3" edge="1">
          <mxGeometry x="-0.9564" relative="1" as="geometry">
            <Array as="points">
              <mxPoint x="629" y="2935" />
            </Array>
            <mxPoint as="offset" />
          </mxGeometry>
        </mxCell>
        <mxCell id="nNyaXuhyY7WsVw48KWjg-90" value="Yes" style="edgeStyle=orthogonalEdgeStyle;rounded=0;orthogonalLoop=1;jettySize=auto;html=1;exitX=1;exitY=0.5;exitDx=0;exitDy=0;exitPerimeter=0;entryX=0.5;entryY=0;entryDx=0;entryDy=0;" parent="1" source="nNyaXuhyY7WsVw48KWjg-75" target="nNyaXuhyY7WsVw48KWjg-59" edge="1">
          <mxGeometry x="-0.8429" relative="1" as="geometry">
            <mxPoint as="offset" />
          </mxGeometry>
        </mxCell>
        <mxCell id="nNyaXuhyY7WsVw48KWjg-75" value="is i more than n" style="strokeWidth=2;html=1;shape=mxgraph.flowchart.loop_limit;whiteSpace=wrap;" parent="1" vertex="1">
          <mxGeometry x="359" y="2343.75" width="100" height="60" as="geometry" />
        </mxCell>
        <mxCell id="nNyaXuhyY7WsVw48KWjg-76" value="add 1 to i" style="rounded=1;whiteSpace=wrap;html=1;absoluteArcSize=1;arcSize=14;strokeWidth=2;" parent="1" vertex="1">
          <mxGeometry x="179" y="2343.75" width="100" height="60" as="geometry" />
        </mxCell>
        <mxCell id="nNyaXuhyY7WsVw48KWjg-77" value="" style="verticalLabelPosition=bottom;verticalAlign=top;html=1;shape=mxgraph.flowchart.parallel_mode;pointerEvents=1" parent="1" vertex="1">
          <mxGeometry x="361.5" y="2483.25" width="95" height="40" as="geometry" />
        </mxCell>
        <mxCell id="nNyaXuhyY7WsVw48KWjg-78" value="Search &lt;br&gt;(text-segment and pattern)" style="verticalLabelPosition=bottom;verticalAlign=top;html=1;shape=mxgraph.flowchart.on-page_reference;fillColor=#d80073;fontColor=#ffffff;strokeColor=#A50040;" parent="1" vertex="1">
          <mxGeometry x="294.25" y="2594.25" width="60" height="60" as="geometry" />
        </mxCell>
        <mxCell id="nNyaXuhyY7WsVw48KWjg-79" style="edgeStyle=orthogonalEdgeStyle;rounded=0;orthogonalLoop=1;jettySize=auto;html=1;exitX=0.5;exitY=1;exitDx=0;exitDy=0;exitPerimeter=0;entryX=1;entryY=0.5;entryDx=0;entryDy=0;entryPerimeter=0;" parent="1" source="nNyaXuhyY7WsVw48KWjg-77" target="nNyaXuhyY7WsVw48KWjg-78" edge="1">
          <mxGeometry relative="1" as="geometry" />
        </mxCell>
        <mxCell id="nNyaXuhyY7WsVw48KWjg-80" value="Start Process" style="edgeLabel;html=1;align=center;verticalAlign=middle;resizable=0;points=[];" parent="nNyaXuhyY7WsVw48KWjg-79" vertex="1" connectable="0">
          <mxGeometry x="-0.2432" y="-1" relative="1" as="geometry">
            <mxPoint x="1" y="4" as="offset" />
          </mxGeometry>
        </mxCell>
        <mxCell id="nNyaXuhyY7WsVw48KWjg-81" style="edgeStyle=orthogonalEdgeStyle;rounded=0;orthogonalLoop=1;jettySize=auto;html=1;exitX=0.5;exitY=0;exitDx=0;exitDy=0;exitPerimeter=0;entryX=0.5;entryY=1;entryDx=0;entryDy=0;" parent="1" source="nNyaXuhyY7WsVw48KWjg-82" target="nNyaXuhyY7WsVw48KWjg-76" edge="1">
          <mxGeometry relative="1" as="geometry" />
        </mxCell>
        <mxCell id="nNyaXuhyY7WsVw48KWjg-82" value="" style="verticalLabelPosition=bottom;verticalAlign=top;html=1;shape=mxgraph.flowchart.parallel_mode;pointerEvents=1" parent="1" vertex="1">
          <mxGeometry x="181.5" y="2473.25" width="95" height="40" as="geometry" />
        </mxCell>
        <mxCell id="nNyaXuhyY7WsVw48KWjg-83" style="edgeStyle=orthogonalEdgeStyle;rounded=0;orthogonalLoop=1;jettySize=auto;html=1;exitX=0;exitY=0.5;exitDx=0;exitDy=0;exitPerimeter=0;entryX=0.5;entryY=1;entryDx=0;entryDy=0;entryPerimeter=0;" parent="1" source="nNyaXuhyY7WsVw48KWjg-78" target="nNyaXuhyY7WsVw48KWjg-82" edge="1">
          <mxGeometry relative="1" as="geometry" />
        </mxCell>
        <mxCell id="nNyaXuhyY7WsVw48KWjg-84" value="No" style="edgeStyle=orthogonalEdgeStyle;rounded=0;orthogonalLoop=1;jettySize=auto;html=1;exitX=0.5;exitY=1;exitDx=0;exitDy=0;exitPerimeter=0;entryX=0.5;entryY=0;entryDx=0;entryDy=0;entryPerimeter=0;" parent="1" source="nNyaXuhyY7WsVw48KWjg-75" target="nNyaXuhyY7WsVw48KWjg-77" edge="1">
          <mxGeometry x="-0.3273" relative="1" as="geometry">
            <mxPoint as="offset" />
          </mxGeometry>
        </mxCell>
        <mxCell id="nNyaXuhyY7WsVw48KWjg-85" style="edgeStyle=orthogonalEdgeStyle;rounded=0;orthogonalLoop=1;jettySize=auto;html=1;exitX=1;exitY=0.5;exitDx=0;exitDy=0;entryX=0;entryY=0.5;entryDx=0;entryDy=0;entryPerimeter=0;" parent="1" source="nNyaXuhyY7WsVw48KWjg-76" target="nNyaXuhyY7WsVw48KWjg-75" edge="1">
          <mxGeometry relative="1" as="geometry" />
        </mxCell>
        <mxCell id="nNyaXuhyY7WsVw48KWjg-86" style="edgeStyle=orthogonalEdgeStyle;rounded=0;orthogonalLoop=1;jettySize=auto;html=1;exitX=0.5;exitY=1;exitDx=0;exitDy=0;" parent="1" source="nNyaXuhyY7WsVw48KWjg-35" target="nNyaXuhyY7WsVw48KWjg-35" edge="1">
          <mxGeometry relative="1" as="geometry" />
        </mxCell>
      </root>
    </mxGraphModel>
  </diagram>
  <diagram id="7ZsY1jDFvXnDOGWtwRhS" name="High level">
    <mxGraphModel dx="1679" dy="674" grid="1" gridSize="10" guides="1" tooltips="1" connect="1" arrows="1" fold="1" page="1" pageScale="1" pageWidth="827" pageHeight="1169" math="0" shadow="0">
      <root>
        <mxCell id="0" />
        <mxCell id="1" parent="0" />
        <mxCell id="MrAn_SexYz6O-_L5fU0l-6" style="rounded=0;orthogonalLoop=1;jettySize=auto;html=1;exitX=0.5;exitY=1;exitDx=0;exitDy=0;entryX=0.5;entryY=0;entryDx=0;entryDy=0;" edge="1" parent="1" source="MrAn_SexYz6O-_L5fU0l-1" target="MrAn_SexYz6O-_L5fU0l-3">
          <mxGeometry relative="1" as="geometry" />
        </mxCell>
        <mxCell id="MrAn_SexYz6O-_L5fU0l-7" style="edgeStyle=orthogonalEdgeStyle;rounded=0;orthogonalLoop=1;jettySize=auto;html=1;exitX=0.5;exitY=1;exitDx=0;exitDy=0;entryX=0.5;entryY=0;entryDx=0;entryDy=0;" edge="1" parent="1" source="MrAn_SexYz6O-_L5fU0l-1" target="MrAn_SexYz6O-_L5fU0l-4">
          <mxGeometry relative="1" as="geometry" />
        </mxCell>
        <mxCell id="MrAn_SexYz6O-_L5fU0l-8" style="rounded=0;orthogonalLoop=1;jettySize=auto;html=1;exitX=0.5;exitY=1;exitDx=0;exitDy=0;entryX=0.5;entryY=0;entryDx=0;entryDy=0;" edge="1" parent="1" source="MrAn_SexYz6O-_L5fU0l-1" target="MrAn_SexYz6O-_L5fU0l-5">
          <mxGeometry relative="1" as="geometry" />
        </mxCell>
        <mxCell id="MrAn_SexYz6O-_L5fU0l-1" value="Main Process" style="html=1;whiteSpace=wrap;" vertex="1" parent="1">
          <mxGeometry x="90" y="190" width="648" height="50" as="geometry" />
        </mxCell>
        <mxCell id="MrAn_SexYz6O-_L5fU0l-13" value="Read" style="edgeStyle=orthogonalEdgeStyle;rounded=0;orthogonalLoop=1;jettySize=auto;html=1;entryX=0.25;entryY=1;entryDx=0;entryDy=0;exitX=0.291;exitY=0.014;exitDx=0;exitDy=0;exitPerimeter=0;" edge="1" parent="1" source="MrAn_SexYz6O-_L5fU0l-2" target="MrAn_SexYz6O-_L5fU0l-3">
          <mxGeometry relative="1" as="geometry">
            <mxPoint x="258" y="580" as="sourcePoint" />
          </mxGeometry>
        </mxCell>
        <mxCell id="MrAn_SexYz6O-_L5fU0l-2" value="«interface»&lt;br&gt;&lt;b&gt;Shared Memory&lt;br&gt;(Message Queue)&lt;br&gt;&lt;/b&gt;" style="html=1;whiteSpace=wrap;" vertex="1" parent="1">
          <mxGeometry x="40" y="585" width="750" height="70" as="geometry" />
        </mxCell>
        <mxCell id="MrAn_SexYz6O-_L5fU0l-3" value="Child process 1" style="html=1;whiteSpace=wrap;" vertex="1" parent="1">
          <mxGeometry x="230" y="350" width="110" height="50" as="geometry" />
        </mxCell>
        <mxCell id="MrAn_SexYz6O-_L5fU0l-4" value="Child process 2" style="html=1;whiteSpace=wrap;" vertex="1" parent="1">
          <mxGeometry x="359" y="350" width="110" height="50" as="geometry" />
        </mxCell>
        <mxCell id="MrAn_SexYz6O-_L5fU0l-5" value="Child process ....n" style="html=1;whiteSpace=wrap;" vertex="1" parent="1">
          <mxGeometry x="490" y="350" width="110" height="50" as="geometry" />
        </mxCell>
        <mxCell id="MrAn_SexYz6O-_L5fU0l-9" value="Write" style="edgeStyle=orthogonalEdgeStyle;rounded=0;orthogonalLoop=1;jettySize=auto;html=1;exitX=0.941;exitY=1.02;exitDx=0;exitDy=0;entryX=0.88;entryY=0;entryDx=0;entryDy=0;entryPerimeter=0;exitPerimeter=0;" edge="1" parent="1" source="MrAn_SexYz6O-_L5fU0l-1" target="MrAn_SexYz6O-_L5fU0l-2">
          <mxGeometry relative="1" as="geometry" />
        </mxCell>
        <mxCell id="MrAn_SexYz6O-_L5fU0l-10" value="Read" style="edgeStyle=orthogonalEdgeStyle;rounded=0;orthogonalLoop=1;jettySize=auto;html=1;exitX=0.124;exitY=0;exitDx=0;exitDy=0;entryX=0.066;entryY=1.04;entryDx=0;entryDy=0;entryPerimeter=0;exitPerimeter=0;" edge="1" parent="1" source="MrAn_SexYz6O-_L5fU0l-2" target="MrAn_SexYz6O-_L5fU0l-1">
          <mxGeometry relative="1" as="geometry" />
        </mxCell>
        <mxCell id="MrAn_SexYz6O-_L5fU0l-12" value="Write" style="edgeStyle=orthogonalEdgeStyle;rounded=0;orthogonalLoop=1;jettySize=auto;html=1;exitX=0.75;exitY=1;exitDx=0;exitDy=0;entryX=0.362;entryY=0.006;entryDx=0;entryDy=0;entryPerimeter=0;" edge="1" parent="1" source="MrAn_SexYz6O-_L5fU0l-3" target="MrAn_SexYz6O-_L5fU0l-2">
          <mxGeometry relative="1" as="geometry" />
        </mxCell>
        <mxCell id="MrAn_SexYz6O-_L5fU0l-14" value="Write" style="edgeStyle=orthogonalEdgeStyle;rounded=0;orthogonalLoop=1;jettySize=auto;html=1;exitX=0.75;exitY=1;exitDx=0;exitDy=0;entryX=0.535;entryY=-0.014;entryDx=0;entryDy=0;entryPerimeter=0;" edge="1" parent="1" source="MrAn_SexYz6O-_L5fU0l-4" target="MrAn_SexYz6O-_L5fU0l-2">
          <mxGeometry relative="1" as="geometry" />
        </mxCell>
        <mxCell id="MrAn_SexYz6O-_L5fU0l-16" value="Write" style="edgeStyle=orthogonalEdgeStyle;rounded=0;orthogonalLoop=1;jettySize=auto;html=1;exitX=0.75;exitY=1;exitDx=0;exitDy=0;entryX=0.71;entryY=0.022;entryDx=0;entryDy=0;entryPerimeter=0;" edge="1" parent="1" source="MrAn_SexYz6O-_L5fU0l-5" target="MrAn_SexYz6O-_L5fU0l-2">
          <mxGeometry relative="1" as="geometry" />
        </mxCell>
        <mxCell id="MrAn_SexYz6O-_L5fU0l-17" value="Read" style="edgeStyle=orthogonalEdgeStyle;rounded=0;orthogonalLoop=1;jettySize=auto;html=1;exitX=0.25;exitY=1;exitDx=0;exitDy=0;entryX=0.638;entryY=0.014;entryDx=0;entryDy=0;entryPerimeter=0;endArrow=none;endFill=0;startArrow=classic;startFill=1;" edge="1" parent="1" source="MrAn_SexYz6O-_L5fU0l-5" target="MrAn_SexYz6O-_L5fU0l-2">
          <mxGeometry relative="1" as="geometry" />
        </mxCell>
        <mxCell id="MrAn_SexYz6O-_L5fU0l-18" value="Read" style="edgeStyle=orthogonalEdgeStyle;rounded=0;orthogonalLoop=1;jettySize=auto;html=1;exitX=0.25;exitY=1;exitDx=0;exitDy=0;entryX=0.462;entryY=-0.01;entryDx=0;entryDy=0;entryPerimeter=0;startArrow=classic;startFill=1;endArrow=none;endFill=0;" edge="1" parent="1" source="MrAn_SexYz6O-_L5fU0l-4" target="MrAn_SexYz6O-_L5fU0l-2">
          <mxGeometry relative="1" as="geometry" />
        </mxCell>
      </root>
    </mxGraphModel>
  </diagram>
</mxfile>
